G04 #@! TF.GenerationSoftware,KiCad,Pcbnew,(6.0.4-0)*
G04 #@! TF.CreationDate,2022-04-04T15:41:03+02:00*
G04 #@! TF.ProjectId,EnergyMonitor,456e6572-6779-44d6-9f6e-69746f722e6b,rev?*
G04 #@! TF.SameCoordinates,Original*
G04 #@! TF.FileFunction,Legend,Bot*
G04 #@! TF.FilePolarity,Positive*
%FSLAX46Y46*%
G04 Gerber Fmt 4.6, Leading zero omitted, Abs format (unit mm)*
G04 Created by KiCad (PCBNEW (6.0.4-0)) date 2022-04-04 15:41:03*
%MOMM*%
%LPD*%
G01*
G04 APERTURE LIST*
G04 Aperture macros list*
%AMRoundRect*
0 Rectangle with rounded corners*
0 $1 Rounding radius*
0 $2 $3 $4 $5 $6 $7 $8 $9 X,Y pos of 4 corners*
0 Add a 4 corners polygon primitive as box body*
4,1,4,$2,$3,$4,$5,$6,$7,$8,$9,$2,$3,0*
0 Add four circle primitives for the rounded corners*
1,1,$1+$1,$2,$3*
1,1,$1+$1,$4,$5*
1,1,$1+$1,$6,$7*
1,1,$1+$1,$8,$9*
0 Add four rect primitives between the rounded corners*
20,1,$1+$1,$2,$3,$4,$5,0*
20,1,$1+$1,$4,$5,$6,$7,0*
20,1,$1+$1,$6,$7,$8,$9,0*
20,1,$1+$1,$8,$9,$2,$3,0*%
%AMOutline5P*
0 Free polygon, 5 corners , with rotation*
0 The origin of the aperture is its center*
0 number of corners: always 5*
0 $1 to $10 corner X, Y*
0 $11 Rotation angle, in degrees counterclockwise*
0 create outline with 5 corners*
4,1,5,$1,$2,$3,$4,$5,$6,$7,$8,$9,$10,$1,$2,$11*%
%AMOutline6P*
0 Free polygon, 6 corners , with rotation*
0 The origin of the aperture is its center*
0 number of corners: always 6*
0 $1 to $12 corner X, Y*
0 $13 Rotation angle, in degrees counterclockwise*
0 create outline with 6 corners*
4,1,6,$1,$2,$3,$4,$5,$6,$7,$8,$9,$10,$11,$12,$1,$2,$13*%
%AMOutline7P*
0 Free polygon, 7 corners , with rotation*
0 The origin of the aperture is its center*
0 number of corners: always 7*
0 $1 to $14 corner X, Y*
0 $15 Rotation angle, in degrees counterclockwise*
0 create outline with 7 corners*
4,1,7,$1,$2,$3,$4,$5,$6,$7,$8,$9,$10,$11,$12,$13,$14,$1,$2,$15*%
%AMOutline8P*
0 Free polygon, 8 corners , with rotation*
0 The origin of the aperture is its center*
0 number of corners: always 8*
0 $1 to $16 corner X, Y*
0 $17 Rotation angle, in degrees counterclockwise*
0 create outline with 8 corners*
4,1,8,$1,$2,$3,$4,$5,$6,$7,$8,$9,$10,$11,$12,$13,$14,$15,$16,$1,$2,$17*%
G04 Aperture macros list end*
%ADD10C,2.700000*%
%ADD11C,2.000000*%
%ADD12C,1.200000*%
%ADD13RoundRect,0.250000X-0.725000X0.600000X-0.725000X-0.600000X0.725000X-0.600000X0.725000X0.600000X0*%
%ADD14O,1.950000X1.700000*%
%ADD15C,1.800000*%
%ADD16C,2.600000*%
%ADD17R,2.600000X2.600000*%
%ADD18C,3.000000*%
%ADD19C,6.200000*%
%ADD20R,1.700000X1.700000*%
%ADD21O,1.700000X1.700000*%
%ADD22R,2.300000X2.000000*%
%ADD23C,2.300000*%
%ADD24Outline5P,-1.500000X1.500000X1.500000X1.500000X1.500000X-1.500000X-0.900000X-1.500000X-1.500000X-0.900000X90.000000*%
%ADD25Outline5P,-1.500000X0.900000X-0.900000X1.500000X1.500000X1.500000X1.500000X-1.500000X-1.500000X-1.500000X90.000000*%
%ADD26O,2.000000X3.000000*%
G04 APERTURE END LIST*
%LPC*%
D10*
X190250000Y-66350000D03*
X190250000Y-115650000D03*
D11*
X103815000Y-99885000D03*
X110815000Y-99885000D03*
X110815000Y-91885000D03*
X103815000Y-91885000D03*
D12*
X109760000Y-72695000D03*
D13*
X111760000Y-74295000D03*
D14*
X111760000Y-76795000D03*
X111760000Y-79295000D03*
X111760000Y-81795000D03*
D10*
X109500000Y-115650000D03*
D15*
X104200000Y-108020000D03*
X111700000Y-110420000D03*
D16*
X153860000Y-127600000D03*
X146360000Y-127600000D03*
D17*
X138860000Y-127600000D03*
D16*
X108860000Y-53900000D03*
X113860000Y-53900000D03*
X118860000Y-53900000D03*
X123860000Y-53900000D03*
X128860000Y-53900000D03*
X133860000Y-53900000D03*
X138860000Y-53900000D03*
X143860000Y-53900000D03*
X148860000Y-53900000D03*
X153860000Y-53900000D03*
X158860000Y-53900000D03*
D17*
X163860000Y-53900000D03*
D10*
X118290000Y-128270000D03*
D18*
X129540000Y-128270000D03*
X107040000Y-128270000D03*
D10*
X109500000Y-66350000D03*
D19*
X121000000Y-65900000D03*
X179000000Y-88900000D03*
X179000000Y-65900000D03*
X121000000Y-88900000D03*
D20*
X125870000Y-87630000D03*
D21*
X125870000Y-90170000D03*
X128410000Y-87630000D03*
X128410000Y-90170000D03*
X130950000Y-87630000D03*
X130950000Y-90170000D03*
X133490000Y-87630000D03*
X133490000Y-90170000D03*
X136030000Y-87630000D03*
X136030000Y-90170000D03*
X138570000Y-87630000D03*
X138570000Y-90170000D03*
X141110000Y-87630000D03*
X141110000Y-90170000D03*
X143650000Y-87630000D03*
X143650000Y-90170000D03*
X146190000Y-87630000D03*
X146190000Y-90170000D03*
X148730000Y-87630000D03*
X148730000Y-90170000D03*
X151270000Y-87630000D03*
X151270000Y-90170000D03*
X153810000Y-87630000D03*
X153810000Y-90170000D03*
X156350000Y-87630000D03*
X156350000Y-90170000D03*
X158890000Y-87630000D03*
X158890000Y-90170000D03*
X161430000Y-87630000D03*
X161430000Y-90170000D03*
X163970000Y-87630000D03*
X163970000Y-90170000D03*
X166510000Y-87630000D03*
X166510000Y-90170000D03*
X169050000Y-87630000D03*
X169050000Y-90170000D03*
X171590000Y-87630000D03*
X171590000Y-90170000D03*
X174130000Y-87630000D03*
X174130000Y-90170000D03*
D22*
X119380000Y-100965000D03*
D23*
X119380000Y-105965000D03*
X148780000Y-95765000D03*
X148780000Y-111165000D03*
D11*
X128190000Y-118745000D03*
X118190000Y-118745000D03*
D24*
X180942000Y-117500000D03*
D25*
X160942000Y-117500000D03*
D26*
X165942000Y-97500000D03*
X175942000Y-97500000D03*
M02*
