%FSLAX45Y45*%
G04 Gerber Fmt 4.5, Leading zero omitted, Abs format (unit mm)*
G04 Created by KiCad (PCBNEW (6.0.4-0)) date 2022-04-04 15:41:06*
%MOMM*%
%LPD*%
G01*
G04 APERTURE LIST*
%TA.AperFunction,Profile*%
%ADD10C,0.100000*%
%TD*%
%ADD11C,0.200000*%
%ADD12C,0.040000*%
%ADD13C,0.065000*%
%ADD14C,0.080000*%
%ADD15C,0.095000*%
%ADD16C,0.100000*%
%ADD17C,0.130000*%
%ADD18C,0.140000*%
G04 APERTURE END LIST*
D10*
X10300000Y-4850000D02*
G75*
G03*
X10000000Y-5150000I0J-300000D01*
G01*
X20000000Y-5150000D02*
G75*
G03*
X19700000Y-4850000I-300000J0D01*
G01*
X10300000Y-4850000D02*
X19700000Y-4850000D01*
X10000000Y-13050000D02*
G75*
G03*
X10300000Y-13350000I300000J0D01*
G01*
X20000000Y-5150000D02*
X20000000Y-13050000D01*
X19700000Y-13350000D02*
G75*
G03*
X20000000Y-13050000I0J300000D01*
G01*
X19700000Y-13350000D02*
X10300000Y-13350000D01*
X10000000Y-13050000D02*
X10000000Y-5150000D01*
D11*
D12*
X12997500Y-8552500D02*
X13037500Y-8592500D01*
X13037500Y-8552500D02*
X12997500Y-8592500D01*
X13188000Y-7805050D02*
X13228000Y-7845050D01*
X13228000Y-7805050D02*
X13188000Y-7845050D01*
X13772200Y-8235000D02*
X13812200Y-8275000D01*
X13812200Y-8235000D02*
X13772200Y-8275000D01*
X13772200Y-8336600D02*
X13812200Y-8376600D01*
X13812200Y-8336600D02*
X13772200Y-8376600D01*
X14051601Y-7828600D02*
X14091601Y-7868600D01*
X14091601Y-7828600D02*
X14051601Y-7868600D01*
X14254800Y-7904800D02*
X14294800Y-7944800D01*
X14294800Y-7904800D02*
X14254800Y-7944800D01*
X14458000Y-8171500D02*
X14498000Y-8211500D01*
X14498000Y-8171500D02*
X14458000Y-8211500D01*
X14585000Y-6330000D02*
X14625000Y-6370000D01*
X14625000Y-6330000D02*
X14585000Y-6370000D01*
X14712000Y-7092000D02*
X14752000Y-7132000D01*
X14752000Y-7092000D02*
X14712000Y-7132000D01*
X14839000Y-6330000D02*
X14879000Y-6370000D01*
X14879000Y-6330000D02*
X14839000Y-6370000D01*
X14966000Y-7092000D02*
X15006000Y-7132000D01*
X15006000Y-7092000D02*
X14966000Y-7132000D01*
X15093000Y-6330000D02*
X15133000Y-6370000D01*
X15133000Y-6330000D02*
X15093000Y-6370000D01*
X15220000Y-7092000D02*
X15260000Y-7132000D01*
X15260000Y-7092000D02*
X15220000Y-7132000D01*
X15283500Y-8171500D02*
X15323500Y-8211500D01*
X15323500Y-8171500D02*
X15283500Y-8211500D01*
X15347000Y-6330000D02*
X15387000Y-6370000D01*
X15387000Y-6330000D02*
X15347000Y-6370000D01*
X15474000Y-7092000D02*
X15514000Y-7132000D01*
X15514000Y-7092000D02*
X15474000Y-7132000D01*
X15479050Y-8171500D02*
X15519050Y-8211500D01*
X15519050Y-8171500D02*
X15479050Y-8211500D01*
X15529125Y-8480625D02*
X15569125Y-8520625D01*
X15569125Y-8480625D02*
X15529125Y-8520625D01*
X15601000Y-6330000D02*
X15641000Y-6370000D01*
X15641000Y-6330000D02*
X15601000Y-6370000D01*
X15728000Y-7092000D02*
X15768000Y-7132000D01*
X15768000Y-7092000D02*
X15728000Y-7132000D01*
X15855000Y-6330000D02*
X15895000Y-6370000D01*
X15895000Y-6330000D02*
X15855000Y-6370000D01*
X15982000Y-7092000D02*
X16022000Y-7132000D01*
X16022000Y-7092000D02*
X15982000Y-7132000D01*
X16236000Y-7092000D02*
X16276000Y-7132000D01*
X16276000Y-7092000D02*
X16236000Y-7132000D01*
X16299500Y-8171500D02*
X16339500Y-8211500D01*
X16339500Y-8171500D02*
X16299500Y-8211500D01*
X16490000Y-7092000D02*
X16530000Y-7132000D01*
X16530000Y-7092000D02*
X16490000Y-7132000D01*
X16617000Y-7092000D02*
X16657000Y-7132000D01*
X16657000Y-7092000D02*
X16617000Y-7132000D01*
X17048800Y-7955600D02*
X17088800Y-7995600D01*
X17088800Y-7955600D02*
X17048800Y-7995600D01*
X17582200Y-7955600D02*
X17622200Y-7995600D01*
X17622200Y-7955600D02*
X17582200Y-7995600D01*
X17760000Y-7346000D02*
X17800000Y-7386000D01*
X17800000Y-7346000D02*
X17760000Y-7386000D01*
D13*
X10414000Y-9188500D02*
G75*
G03*
X10414000Y-9188500I-32500J0D01*
G01*
X10414000Y-9988500D02*
G75*
G03*
X10414000Y-9988500I-32500J0D01*
G01*
X11114000Y-9188500D02*
G75*
G03*
X11114000Y-9188500I-32500J0D01*
G01*
X11114000Y-9988500D02*
G75*
G03*
X11114000Y-9988500I-32500J0D01*
G01*
D14*
X10420000Y-10762000D02*
X10420000Y-10842000D01*
X10380000Y-10802000D02*
X10460000Y-10802000D01*
X11170000Y-11002000D02*
X11170000Y-11082000D01*
X11130000Y-11042000D02*
X11210000Y-11042000D01*
D15*
X11209588Y-7463088D02*
X11209588Y-7395912D01*
X11142412Y-7395912D01*
X11142412Y-7463088D01*
X11209588Y-7463088D01*
X11209588Y-7713088D02*
X11209588Y-7645912D01*
X11142412Y-7645912D01*
X11142412Y-7713088D01*
X11209588Y-7713088D01*
X11209588Y-7963088D02*
X11209588Y-7895912D01*
X11142412Y-7895912D01*
X11142412Y-7963088D01*
X11209588Y-7963088D01*
X11209588Y-8213088D02*
X11209588Y-8145912D01*
X11142412Y-8145912D01*
X11142412Y-8213088D01*
X11209588Y-8213088D01*
X16127788Y-11783588D02*
X16127788Y-11716412D01*
X16060612Y-11716412D01*
X16060612Y-11783588D01*
X16127788Y-11783588D01*
X16627788Y-9783588D02*
X16627788Y-9716412D01*
X16560612Y-9716412D01*
X16560612Y-9783588D01*
X16627788Y-9783588D01*
X17627788Y-9783588D02*
X17627788Y-9716412D01*
X17560612Y-9716412D01*
X17560612Y-9783588D01*
X17627788Y-9783588D01*
X18127788Y-11783588D02*
X18127788Y-11716412D01*
X18060612Y-11716412D01*
X18060612Y-11783588D01*
X18127788Y-11783588D01*
D16*
X11819000Y-11924500D02*
X11869000Y-11874500D01*
X11819000Y-11824500D01*
X11769000Y-11874500D01*
X11819000Y-11924500D01*
X11938000Y-10146500D02*
X11988000Y-10096500D01*
X11938000Y-10046500D01*
X11888000Y-10096500D01*
X11938000Y-10146500D01*
X11938000Y-10646500D02*
X11988000Y-10596500D01*
X11938000Y-10546500D01*
X11888000Y-10596500D01*
X11938000Y-10646500D01*
X12587000Y-8813000D02*
X12637000Y-8763000D01*
X12587000Y-8713000D01*
X12537000Y-8763000D01*
X12587000Y-8813000D01*
X12587000Y-9067000D02*
X12637000Y-9017000D01*
X12587000Y-8967000D01*
X12537000Y-9017000D01*
X12587000Y-9067000D01*
X12819000Y-11924500D02*
X12869000Y-11874500D01*
X12819000Y-11824500D01*
X12769000Y-11874500D01*
X12819000Y-11924500D01*
X12841000Y-8813000D02*
X12891000Y-8763000D01*
X12841000Y-8713000D01*
X12791000Y-8763000D01*
X12841000Y-8813000D01*
X12841000Y-9067000D02*
X12891000Y-9017000D01*
X12841000Y-8967000D01*
X12791000Y-9017000D01*
X12841000Y-9067000D01*
X13095000Y-8813000D02*
X13145000Y-8763000D01*
X13095000Y-8713000D01*
X13045000Y-8763000D01*
X13095000Y-8813000D01*
X13095000Y-9067000D02*
X13145000Y-9017000D01*
X13095000Y-8967000D01*
X13045000Y-9017000D01*
X13095000Y-9067000D01*
X13349000Y-8813000D02*
X13399000Y-8763000D01*
X13349000Y-8713000D01*
X13299000Y-8763000D01*
X13349000Y-8813000D01*
X13349000Y-9067000D02*
X13399000Y-9017000D01*
X13349000Y-8967000D01*
X13299000Y-9017000D01*
X13349000Y-9067000D01*
X13603000Y-8813000D02*
X13653000Y-8763000D01*
X13603000Y-8713000D01*
X13553000Y-8763000D01*
X13603000Y-8813000D01*
X13603000Y-9067000D02*
X13653000Y-9017000D01*
X13603000Y-8967000D01*
X13553000Y-9017000D01*
X13603000Y-9067000D01*
X13857000Y-8813000D02*
X13907000Y-8763000D01*
X13857000Y-8713000D01*
X13807000Y-8763000D01*
X13857000Y-8813000D01*
X13857000Y-9067000D02*
X13907000Y-9017000D01*
X13857000Y-8967000D01*
X13807000Y-9017000D01*
X13857000Y-9067000D01*
X14111000Y-8813000D02*
X14161000Y-8763000D01*
X14111000Y-8713000D01*
X14061000Y-8763000D01*
X14111000Y-8813000D01*
X14111000Y-9067000D02*
X14161000Y-9017000D01*
X14111000Y-8967000D01*
X14061000Y-9017000D01*
X14111000Y-9067000D01*
X14365000Y-8813000D02*
X14415000Y-8763000D01*
X14365000Y-8713000D01*
X14315000Y-8763000D01*
X14365000Y-8813000D01*
X14365000Y-9067000D02*
X14415000Y-9017000D01*
X14365000Y-8967000D01*
X14315000Y-9017000D01*
X14365000Y-9067000D01*
X14619000Y-8813000D02*
X14669000Y-8763000D01*
X14619000Y-8713000D01*
X14569000Y-8763000D01*
X14619000Y-8813000D01*
X14619000Y-9067000D02*
X14669000Y-9017000D01*
X14619000Y-8967000D01*
X14569000Y-9017000D01*
X14619000Y-9067000D01*
X14873000Y-8813000D02*
X14923000Y-8763000D01*
X14873000Y-8713000D01*
X14823000Y-8763000D01*
X14873000Y-8813000D01*
X14873000Y-9067000D02*
X14923000Y-9017000D01*
X14873000Y-8967000D01*
X14823000Y-9017000D01*
X14873000Y-9067000D01*
X14878000Y-9626500D02*
X14928000Y-9576500D01*
X14878000Y-9526500D01*
X14828000Y-9576500D01*
X14878000Y-9626500D01*
X14878000Y-11166500D02*
X14928000Y-11116500D01*
X14878000Y-11066500D01*
X14828000Y-11116500D01*
X14878000Y-11166500D01*
X15127000Y-8813000D02*
X15177000Y-8763000D01*
X15127000Y-8713000D01*
X15077000Y-8763000D01*
X15127000Y-8813000D01*
X15127000Y-9067000D02*
X15177000Y-9017000D01*
X15127000Y-8967000D01*
X15077000Y-9017000D01*
X15127000Y-9067000D01*
X15381000Y-8813000D02*
X15431000Y-8763000D01*
X15381000Y-8713000D01*
X15331000Y-8763000D01*
X15381000Y-8813000D01*
X15381000Y-9067000D02*
X15431000Y-9017000D01*
X15381000Y-8967000D01*
X15331000Y-9017000D01*
X15381000Y-9067000D01*
X15635000Y-8813000D02*
X15685000Y-8763000D01*
X15635000Y-8713000D01*
X15585000Y-8763000D01*
X15635000Y-8813000D01*
X15635000Y-9067000D02*
X15685000Y-9017000D01*
X15635000Y-8967000D01*
X15585000Y-9017000D01*
X15635000Y-9067000D01*
X15889000Y-8813000D02*
X15939000Y-8763000D01*
X15889000Y-8713000D01*
X15839000Y-8763000D01*
X15889000Y-8813000D01*
X15889000Y-9067000D02*
X15939000Y-9017000D01*
X15889000Y-8967000D01*
X15839000Y-9017000D01*
X15889000Y-9067000D01*
X16143000Y-8813000D02*
X16193000Y-8763000D01*
X16143000Y-8713000D01*
X16093000Y-8763000D01*
X16143000Y-8813000D01*
X16143000Y-9067000D02*
X16193000Y-9017000D01*
X16143000Y-8967000D01*
X16093000Y-9017000D01*
X16143000Y-9067000D01*
X16397000Y-8813000D02*
X16447000Y-8763000D01*
X16397000Y-8713000D01*
X16347000Y-8763000D01*
X16397000Y-8813000D01*
X16397000Y-9067000D02*
X16447000Y-9017000D01*
X16397000Y-8967000D01*
X16347000Y-9017000D01*
X16397000Y-9067000D01*
X16651000Y-8813000D02*
X16701000Y-8763000D01*
X16651000Y-8713000D01*
X16601000Y-8763000D01*
X16651000Y-8813000D01*
X16651000Y-9067000D02*
X16701000Y-9017000D01*
X16651000Y-8967000D01*
X16601000Y-9017000D01*
X16651000Y-9067000D01*
X16905000Y-8813000D02*
X16955000Y-8763000D01*
X16905000Y-8713000D01*
X16855000Y-8763000D01*
X16905000Y-8813000D01*
X16905000Y-9067000D02*
X16955000Y-9017000D01*
X16905000Y-8967000D01*
X16855000Y-9017000D01*
X16905000Y-9067000D01*
X17159000Y-8813000D02*
X17209000Y-8763000D01*
X17159000Y-8713000D01*
X17109000Y-8763000D01*
X17159000Y-8813000D01*
X17159000Y-9067000D02*
X17209000Y-9017000D01*
X17159000Y-8967000D01*
X17109000Y-9017000D01*
X17159000Y-9067000D01*
X17413000Y-8813000D02*
X17463000Y-8763000D01*
X17413000Y-8713000D01*
X17363000Y-8763000D01*
X17413000Y-8813000D01*
X17413000Y-9067000D02*
X17463000Y-9017000D01*
X17413000Y-8967000D01*
X17363000Y-9017000D01*
X17413000Y-9067000D01*
D17*
X10639000Y-12762000D02*
X10769000Y-12892000D01*
X10769000Y-12762000D02*
X10639000Y-12892000D01*
X10769000Y-12827000D02*
G75*
G03*
X10769000Y-12827000I-65000J0D01*
G01*
X10821000Y-5325000D02*
X10951000Y-5455000D01*
X10951000Y-5325000D02*
X10821000Y-5455000D01*
X10951000Y-5390000D02*
G75*
G03*
X10951000Y-5390000I-65000J0D01*
G01*
X11321000Y-5325000D02*
X11451000Y-5455000D01*
X11451000Y-5325000D02*
X11321000Y-5455000D01*
X11451000Y-5390000D02*
G75*
G03*
X11451000Y-5390000I-65000J0D01*
G01*
X11821000Y-5325000D02*
X11951000Y-5455000D01*
X11951000Y-5325000D02*
X11821000Y-5455000D01*
X11951000Y-5390000D02*
G75*
G03*
X11951000Y-5390000I-65000J0D01*
G01*
X12321000Y-5325000D02*
X12451000Y-5455000D01*
X12451000Y-5325000D02*
X12321000Y-5455000D01*
X12451000Y-5390000D02*
G75*
G03*
X12451000Y-5390000I-65000J0D01*
G01*
X12821000Y-5325000D02*
X12951000Y-5455000D01*
X12951000Y-5325000D02*
X12821000Y-5455000D01*
X12951000Y-5390000D02*
G75*
G03*
X12951000Y-5390000I-65000J0D01*
G01*
X12889000Y-12762000D02*
X13019000Y-12892000D01*
X13019000Y-12762000D02*
X12889000Y-12892000D01*
X13019000Y-12827000D02*
G75*
G03*
X13019000Y-12827000I-65000J0D01*
G01*
X13321000Y-5325000D02*
X13451000Y-5455000D01*
X13451000Y-5325000D02*
X13321000Y-5455000D01*
X13451000Y-5390000D02*
G75*
G03*
X13451000Y-5390000I-65000J0D01*
G01*
X13821000Y-5325000D02*
X13951000Y-5455000D01*
X13951000Y-5325000D02*
X13821000Y-5455000D01*
X13951000Y-5390000D02*
G75*
G03*
X13951000Y-5390000I-65000J0D01*
G01*
X14321000Y-5325000D02*
X14451000Y-5455000D01*
X14451000Y-5325000D02*
X14321000Y-5455000D01*
X14451000Y-5390000D02*
G75*
G03*
X14451000Y-5390000I-65000J0D01*
G01*
X14821000Y-5325000D02*
X14951000Y-5455000D01*
X14951000Y-5325000D02*
X14821000Y-5455000D01*
X14951000Y-5390000D02*
G75*
G03*
X14951000Y-5390000I-65000J0D01*
G01*
X15321000Y-5325000D02*
X15451000Y-5455000D01*
X15451000Y-5325000D02*
X15321000Y-5455000D01*
X15451000Y-5390000D02*
G75*
G03*
X15451000Y-5390000I-65000J0D01*
G01*
X15821000Y-5325000D02*
X15951000Y-5455000D01*
X15951000Y-5325000D02*
X15821000Y-5455000D01*
X15951000Y-5390000D02*
G75*
G03*
X15951000Y-5390000I-65000J0D01*
G01*
X16321000Y-5325000D02*
X16451000Y-5455000D01*
X16451000Y-5325000D02*
X16321000Y-5455000D01*
X16451000Y-5390000D02*
G75*
G03*
X16451000Y-5390000I-65000J0D01*
G01*
D18*
X13816000Y-12690000D02*
X13956000Y-12830000D01*
X13956000Y-12690000D02*
X13816000Y-12830000D01*
X13886000Y-12690000D02*
X13886000Y-12830000D01*
X13816000Y-12760000D02*
X13956000Y-12760000D01*
X14566000Y-12690000D02*
X14706000Y-12830000D01*
X14706000Y-12690000D02*
X14566000Y-12830000D01*
X14636000Y-12690000D02*
X14636000Y-12830000D01*
X14566000Y-12760000D02*
X14706000Y-12760000D01*
X15316000Y-12690000D02*
X15456000Y-12830000D01*
X15456000Y-12690000D02*
X15316000Y-12830000D01*
X15386000Y-12690000D02*
X15386000Y-12830000D01*
X15316000Y-12760000D02*
X15456000Y-12760000D01*
D11*
X10252619Y-13665476D02*
X10252619Y-13465476D01*
X10300238Y-13465476D01*
X10328810Y-13475000D01*
X10347857Y-13494048D01*
X10357381Y-13513095D01*
X10366905Y-13551190D01*
X10366905Y-13579762D01*
X10357381Y-13617857D01*
X10347857Y-13636905D01*
X10328810Y-13655952D01*
X10300238Y-13665476D01*
X10252619Y-13665476D01*
X10452619Y-13665476D02*
X10452619Y-13532143D01*
X10452619Y-13570238D02*
X10462143Y-13551190D01*
X10471667Y-13541667D01*
X10490714Y-13532143D01*
X10509762Y-13532143D01*
X10576429Y-13665476D02*
X10576429Y-13532143D01*
X10576429Y-13465476D02*
X10566905Y-13475000D01*
X10576429Y-13484524D01*
X10585952Y-13475000D01*
X10576429Y-13465476D01*
X10576429Y-13484524D01*
X10700238Y-13665476D02*
X10681190Y-13655952D01*
X10671667Y-13636905D01*
X10671667Y-13465476D01*
X10805000Y-13665476D02*
X10785952Y-13655952D01*
X10776429Y-13636905D01*
X10776429Y-13465476D01*
X11033571Y-13665476D02*
X11033571Y-13465476D01*
X11100238Y-13608333D01*
X11166905Y-13465476D01*
X11166905Y-13665476D01*
X11347857Y-13665476D02*
X11347857Y-13560714D01*
X11338333Y-13541667D01*
X11319286Y-13532143D01*
X11281190Y-13532143D01*
X11262143Y-13541667D01*
X11347857Y-13655952D02*
X11328809Y-13665476D01*
X11281190Y-13665476D01*
X11262143Y-13655952D01*
X11252619Y-13636905D01*
X11252619Y-13617857D01*
X11262143Y-13598809D01*
X11281190Y-13589286D01*
X11328809Y-13589286D01*
X11347857Y-13579762D01*
X11443095Y-13532143D02*
X11443095Y-13732143D01*
X11443095Y-13541667D02*
X11462143Y-13532143D01*
X11500238Y-13532143D01*
X11519286Y-13541667D01*
X11528809Y-13551190D01*
X11538333Y-13570238D01*
X11538333Y-13627381D01*
X11528809Y-13646428D01*
X11519286Y-13655952D01*
X11500238Y-13665476D01*
X11462143Y-13665476D01*
X11443095Y-13655952D01*
X11624048Y-13646428D02*
X11633571Y-13655952D01*
X11624048Y-13665476D01*
X11614524Y-13655952D01*
X11624048Y-13646428D01*
X11624048Y-13665476D01*
X11624048Y-13541667D02*
X11633571Y-13551190D01*
X11624048Y-13560714D01*
X11614524Y-13551190D01*
X11624048Y-13541667D01*
X11624048Y-13560714D01*
D12*
X9955000Y-13975000D02*
X9995000Y-14015000D01*
X9995000Y-13975000D02*
X9955000Y-14015000D01*
D11*
X10290714Y-13885476D02*
X10309762Y-13885476D01*
X10328810Y-13895000D01*
X10338333Y-13904524D01*
X10347857Y-13923571D01*
X10357381Y-13961667D01*
X10357381Y-14009286D01*
X10347857Y-14047381D01*
X10338333Y-14066428D01*
X10328810Y-14075952D01*
X10309762Y-14085476D01*
X10290714Y-14085476D01*
X10271667Y-14075952D01*
X10262143Y-14066428D01*
X10252619Y-14047381D01*
X10243095Y-14009286D01*
X10243095Y-13961667D01*
X10252619Y-13923571D01*
X10262143Y-13904524D01*
X10271667Y-13895000D01*
X10290714Y-13885476D01*
X10443095Y-14066428D02*
X10452619Y-14075952D01*
X10443095Y-14085476D01*
X10433571Y-14075952D01*
X10443095Y-14066428D01*
X10443095Y-14085476D01*
X10624048Y-13952143D02*
X10624048Y-14085476D01*
X10576429Y-13875952D02*
X10528810Y-14018809D01*
X10652619Y-14018809D01*
X10766905Y-13885476D02*
X10785952Y-13885476D01*
X10805000Y-13895000D01*
X10814524Y-13904524D01*
X10824048Y-13923571D01*
X10833571Y-13961667D01*
X10833571Y-14009286D01*
X10824048Y-14047381D01*
X10814524Y-14066428D01*
X10805000Y-14075952D01*
X10785952Y-14085476D01*
X10766905Y-14085476D01*
X10747857Y-14075952D01*
X10738333Y-14066428D01*
X10728810Y-14047381D01*
X10719286Y-14009286D01*
X10719286Y-13961667D01*
X10728810Y-13923571D01*
X10738333Y-13904524D01*
X10747857Y-13895000D01*
X10766905Y-13885476D01*
X10957381Y-13885476D02*
X10976429Y-13885476D01*
X10995476Y-13895000D01*
X11005000Y-13904524D01*
X11014524Y-13923571D01*
X11024048Y-13961667D01*
X11024048Y-14009286D01*
X11014524Y-14047381D01*
X11005000Y-14066428D01*
X10995476Y-14075952D01*
X10976429Y-14085476D01*
X10957381Y-14085476D01*
X10938333Y-14075952D01*
X10928810Y-14066428D01*
X10919286Y-14047381D01*
X10909762Y-14009286D01*
X10909762Y-13961667D01*
X10919286Y-13923571D01*
X10928810Y-13904524D01*
X10938333Y-13895000D01*
X10957381Y-13885476D01*
X11109762Y-14085476D02*
X11109762Y-13952143D01*
X11109762Y-13971190D02*
X11119286Y-13961667D01*
X11138333Y-13952143D01*
X11166905Y-13952143D01*
X11185952Y-13961667D01*
X11195476Y-13980714D01*
X11195476Y-14085476D01*
X11195476Y-13980714D02*
X11205000Y-13961667D01*
X11224048Y-13952143D01*
X11252619Y-13952143D01*
X11271667Y-13961667D01*
X11281190Y-13980714D01*
X11281190Y-14085476D01*
X11376428Y-14085476D02*
X11376428Y-13952143D01*
X11376428Y-13971190D02*
X11385952Y-13961667D01*
X11405000Y-13952143D01*
X11433571Y-13952143D01*
X11452619Y-13961667D01*
X11462143Y-13980714D01*
X11462143Y-14085476D01*
X11462143Y-13980714D02*
X11471667Y-13961667D01*
X11490714Y-13952143D01*
X11519286Y-13952143D01*
X11538333Y-13961667D01*
X11547857Y-13980714D01*
X11547857Y-14085476D01*
X11938333Y-13875952D02*
X11766905Y-14133095D01*
X12195476Y-13885476D02*
X12214524Y-13885476D01*
X12233571Y-13895000D01*
X12243095Y-13904524D01*
X12252619Y-13923571D01*
X12262143Y-13961667D01*
X12262143Y-14009286D01*
X12252619Y-14047381D01*
X12243095Y-14066428D01*
X12233571Y-14075952D01*
X12214524Y-14085476D01*
X12195476Y-14085476D01*
X12176428Y-14075952D01*
X12166905Y-14066428D01*
X12157381Y-14047381D01*
X12147857Y-14009286D01*
X12147857Y-13961667D01*
X12157381Y-13923571D01*
X12166905Y-13904524D01*
X12176428Y-13895000D01*
X12195476Y-13885476D01*
X12347857Y-14066428D02*
X12357381Y-14075952D01*
X12347857Y-14085476D01*
X12338333Y-14075952D01*
X12347857Y-14066428D01*
X12347857Y-14085476D01*
X12481190Y-13885476D02*
X12500238Y-13885476D01*
X12519286Y-13895000D01*
X12528809Y-13904524D01*
X12538333Y-13923571D01*
X12547857Y-13961667D01*
X12547857Y-14009286D01*
X12538333Y-14047381D01*
X12528809Y-14066428D01*
X12519286Y-14075952D01*
X12500238Y-14085476D01*
X12481190Y-14085476D01*
X12462143Y-14075952D01*
X12452619Y-14066428D01*
X12443095Y-14047381D01*
X12433571Y-14009286D01*
X12433571Y-13961667D01*
X12443095Y-13923571D01*
X12452619Y-13904524D01*
X12462143Y-13895000D01*
X12481190Y-13885476D01*
X12738333Y-14085476D02*
X12624048Y-14085476D01*
X12681190Y-14085476D02*
X12681190Y-13885476D01*
X12662143Y-13914048D01*
X12643095Y-13933095D01*
X12624048Y-13942619D01*
X12919286Y-13885476D02*
X12824048Y-13885476D01*
X12814524Y-13980714D01*
X12824048Y-13971190D01*
X12843095Y-13961667D01*
X12890714Y-13961667D01*
X12909762Y-13971190D01*
X12919286Y-13980714D01*
X12928809Y-13999762D01*
X12928809Y-14047381D01*
X12919286Y-14066428D01*
X12909762Y-14075952D01*
X12890714Y-14085476D01*
X12843095Y-14085476D01*
X12824048Y-14075952D01*
X12814524Y-14066428D01*
X12995476Y-13885476D02*
X13128809Y-13885476D01*
X13043095Y-14085476D01*
X13195476Y-13885476D02*
X13195476Y-13923571D01*
X13271667Y-13885476D02*
X13271667Y-13923571D01*
X13566905Y-14161667D02*
X13557381Y-14152143D01*
X13538333Y-14123571D01*
X13528809Y-14104524D01*
X13519286Y-14075952D01*
X13509762Y-14028333D01*
X13509762Y-13990238D01*
X13519286Y-13942619D01*
X13528809Y-13914048D01*
X13538333Y-13895000D01*
X13557381Y-13866428D01*
X13566905Y-13856905D01*
X13633571Y-13904524D02*
X13643095Y-13895000D01*
X13662143Y-13885476D01*
X13709762Y-13885476D01*
X13728809Y-13895000D01*
X13738333Y-13904524D01*
X13747857Y-13923571D01*
X13747857Y-13942619D01*
X13738333Y-13971190D01*
X13624048Y-14085476D01*
X13747857Y-14085476D01*
X13843095Y-14085476D02*
X13881190Y-14085476D01*
X13900238Y-14075952D01*
X13909762Y-14066428D01*
X13928809Y-14037857D01*
X13938333Y-13999762D01*
X13938333Y-13923571D01*
X13928809Y-13904524D01*
X13919286Y-13895000D01*
X13900238Y-13885476D01*
X13862143Y-13885476D01*
X13843095Y-13895000D01*
X13833571Y-13904524D01*
X13824048Y-13923571D01*
X13824048Y-13971190D01*
X13833571Y-13990238D01*
X13843095Y-13999762D01*
X13862143Y-14009286D01*
X13900238Y-14009286D01*
X13919286Y-13999762D01*
X13928809Y-13990238D01*
X13938333Y-13971190D01*
X14176428Y-14085476D02*
X14176428Y-13885476D01*
X14262143Y-14085476D02*
X14262143Y-13980714D01*
X14252619Y-13961667D01*
X14233571Y-13952143D01*
X14205000Y-13952143D01*
X14185952Y-13961667D01*
X14176428Y-13971190D01*
X14385952Y-14085476D02*
X14366905Y-14075952D01*
X14357381Y-14066428D01*
X14347857Y-14047381D01*
X14347857Y-13990238D01*
X14357381Y-13971190D01*
X14366905Y-13961667D01*
X14385952Y-13952143D01*
X14414524Y-13952143D01*
X14433571Y-13961667D01*
X14443095Y-13971190D01*
X14452619Y-13990238D01*
X14452619Y-14047381D01*
X14443095Y-14066428D01*
X14433571Y-14075952D01*
X14414524Y-14085476D01*
X14385952Y-14085476D01*
X14566905Y-14085476D02*
X14547857Y-14075952D01*
X14538333Y-14056905D01*
X14538333Y-13885476D01*
X14719286Y-14075952D02*
X14700238Y-14085476D01*
X14662143Y-14085476D01*
X14643095Y-14075952D01*
X14633571Y-14056905D01*
X14633571Y-13980714D01*
X14643095Y-13961667D01*
X14662143Y-13952143D01*
X14700238Y-13952143D01*
X14719286Y-13961667D01*
X14728809Y-13980714D01*
X14728809Y-13999762D01*
X14633571Y-14018809D01*
X14805000Y-14075952D02*
X14824048Y-14085476D01*
X14862143Y-14085476D01*
X14881190Y-14075952D01*
X14890714Y-14056905D01*
X14890714Y-14047381D01*
X14881190Y-14028333D01*
X14862143Y-14018809D01*
X14833571Y-14018809D01*
X14814524Y-14009286D01*
X14805000Y-13990238D01*
X14805000Y-13980714D01*
X14814524Y-13961667D01*
X14833571Y-13952143D01*
X14862143Y-13952143D01*
X14881190Y-13961667D01*
X14957381Y-14161667D02*
X14966905Y-14152143D01*
X14985952Y-14123571D01*
X14995476Y-14104524D01*
X15005000Y-14075952D01*
X15014524Y-14028333D01*
X15014524Y-13990238D01*
X15005000Y-13942619D01*
X14995476Y-13914048D01*
X14985952Y-13895000D01*
X14966905Y-13866428D01*
X14957381Y-13856905D01*
D13*
X9995000Y-14259000D02*
G75*
G03*
X9995000Y-14259000I-32500J0D01*
G01*
D11*
X10290714Y-14149476D02*
X10309762Y-14149476D01*
X10328810Y-14159000D01*
X10338333Y-14168524D01*
X10347857Y-14187571D01*
X10357381Y-14225667D01*
X10357381Y-14273286D01*
X10347857Y-14311381D01*
X10338333Y-14330428D01*
X10328810Y-14339952D01*
X10309762Y-14349476D01*
X10290714Y-14349476D01*
X10271667Y-14339952D01*
X10262143Y-14330428D01*
X10252619Y-14311381D01*
X10243095Y-14273286D01*
X10243095Y-14225667D01*
X10252619Y-14187571D01*
X10262143Y-14168524D01*
X10271667Y-14159000D01*
X10290714Y-14149476D01*
X10443095Y-14330428D02*
X10452619Y-14339952D01*
X10443095Y-14349476D01*
X10433571Y-14339952D01*
X10443095Y-14330428D01*
X10443095Y-14349476D01*
X10624048Y-14149476D02*
X10585952Y-14149476D01*
X10566905Y-14159000D01*
X10557381Y-14168524D01*
X10538333Y-14197095D01*
X10528810Y-14235190D01*
X10528810Y-14311381D01*
X10538333Y-14330428D01*
X10547857Y-14339952D01*
X10566905Y-14349476D01*
X10605000Y-14349476D01*
X10624048Y-14339952D01*
X10633571Y-14330428D01*
X10643095Y-14311381D01*
X10643095Y-14263762D01*
X10633571Y-14244714D01*
X10624048Y-14235190D01*
X10605000Y-14225667D01*
X10566905Y-14225667D01*
X10547857Y-14235190D01*
X10538333Y-14244714D01*
X10528810Y-14263762D01*
X10824048Y-14149476D02*
X10728810Y-14149476D01*
X10719286Y-14244714D01*
X10728810Y-14235190D01*
X10747857Y-14225667D01*
X10795476Y-14225667D01*
X10814524Y-14235190D01*
X10824048Y-14244714D01*
X10833571Y-14263762D01*
X10833571Y-14311381D01*
X10824048Y-14330428D01*
X10814524Y-14339952D01*
X10795476Y-14349476D01*
X10747857Y-14349476D01*
X10728810Y-14339952D01*
X10719286Y-14330428D01*
X10957381Y-14149476D02*
X10976429Y-14149476D01*
X10995476Y-14159000D01*
X11005000Y-14168524D01*
X11014524Y-14187571D01*
X11024048Y-14225667D01*
X11024048Y-14273286D01*
X11014524Y-14311381D01*
X11005000Y-14330428D01*
X10995476Y-14339952D01*
X10976429Y-14349476D01*
X10957381Y-14349476D01*
X10938333Y-14339952D01*
X10928810Y-14330428D01*
X10919286Y-14311381D01*
X10909762Y-14273286D01*
X10909762Y-14225667D01*
X10919286Y-14187571D01*
X10928810Y-14168524D01*
X10938333Y-14159000D01*
X10957381Y-14149476D01*
X11109762Y-14349476D02*
X11109762Y-14216143D01*
X11109762Y-14235190D02*
X11119286Y-14225667D01*
X11138333Y-14216143D01*
X11166905Y-14216143D01*
X11185952Y-14225667D01*
X11195476Y-14244714D01*
X11195476Y-14349476D01*
X11195476Y-14244714D02*
X11205000Y-14225667D01*
X11224048Y-14216143D01*
X11252619Y-14216143D01*
X11271667Y-14225667D01*
X11281190Y-14244714D01*
X11281190Y-14349476D01*
X11376428Y-14349476D02*
X11376428Y-14216143D01*
X11376428Y-14235190D02*
X11385952Y-14225667D01*
X11405000Y-14216143D01*
X11433571Y-14216143D01*
X11452619Y-14225667D01*
X11462143Y-14244714D01*
X11462143Y-14349476D01*
X11462143Y-14244714D02*
X11471667Y-14225667D01*
X11490714Y-14216143D01*
X11519286Y-14216143D01*
X11538333Y-14225667D01*
X11547857Y-14244714D01*
X11547857Y-14349476D01*
X11938333Y-14139952D02*
X11766905Y-14397095D01*
X12195476Y-14149476D02*
X12214524Y-14149476D01*
X12233571Y-14159000D01*
X12243095Y-14168524D01*
X12252619Y-14187571D01*
X12262143Y-14225667D01*
X12262143Y-14273286D01*
X12252619Y-14311381D01*
X12243095Y-14330428D01*
X12233571Y-14339952D01*
X12214524Y-14349476D01*
X12195476Y-14349476D01*
X12176428Y-14339952D01*
X12166905Y-14330428D01*
X12157381Y-14311381D01*
X12147857Y-14273286D01*
X12147857Y-14225667D01*
X12157381Y-14187571D01*
X12166905Y-14168524D01*
X12176428Y-14159000D01*
X12195476Y-14149476D01*
X12347857Y-14330428D02*
X12357381Y-14339952D01*
X12347857Y-14349476D01*
X12338333Y-14339952D01*
X12347857Y-14330428D01*
X12347857Y-14349476D01*
X12481190Y-14149476D02*
X12500238Y-14149476D01*
X12519286Y-14159000D01*
X12528809Y-14168524D01*
X12538333Y-14187571D01*
X12547857Y-14225667D01*
X12547857Y-14273286D01*
X12538333Y-14311381D01*
X12528809Y-14330428D01*
X12519286Y-14339952D01*
X12500238Y-14349476D01*
X12481190Y-14349476D01*
X12462143Y-14339952D01*
X12452619Y-14330428D01*
X12443095Y-14311381D01*
X12433571Y-14273286D01*
X12433571Y-14225667D01*
X12443095Y-14187571D01*
X12452619Y-14168524D01*
X12462143Y-14159000D01*
X12481190Y-14149476D01*
X12624048Y-14168524D02*
X12633571Y-14159000D01*
X12652619Y-14149476D01*
X12700238Y-14149476D01*
X12719286Y-14159000D01*
X12728809Y-14168524D01*
X12738333Y-14187571D01*
X12738333Y-14206619D01*
X12728809Y-14235190D01*
X12614524Y-14349476D01*
X12738333Y-14349476D01*
X12919286Y-14149476D02*
X12824048Y-14149476D01*
X12814524Y-14244714D01*
X12824048Y-14235190D01*
X12843095Y-14225667D01*
X12890714Y-14225667D01*
X12909762Y-14235190D01*
X12919286Y-14244714D01*
X12928809Y-14263762D01*
X12928809Y-14311381D01*
X12919286Y-14330428D01*
X12909762Y-14339952D01*
X12890714Y-14349476D01*
X12843095Y-14349476D01*
X12824048Y-14339952D01*
X12814524Y-14330428D01*
X13100238Y-14149476D02*
X13062143Y-14149476D01*
X13043095Y-14159000D01*
X13033571Y-14168524D01*
X13014524Y-14197095D01*
X13005000Y-14235190D01*
X13005000Y-14311381D01*
X13014524Y-14330428D01*
X13024048Y-14339952D01*
X13043095Y-14349476D01*
X13081190Y-14349476D01*
X13100238Y-14339952D01*
X13109762Y-14330428D01*
X13119286Y-14311381D01*
X13119286Y-14263762D01*
X13109762Y-14244714D01*
X13100238Y-14235190D01*
X13081190Y-14225667D01*
X13043095Y-14225667D01*
X13024048Y-14235190D01*
X13014524Y-14244714D01*
X13005000Y-14263762D01*
X13195476Y-14149476D02*
X13195476Y-14187571D01*
X13271667Y-14149476D02*
X13271667Y-14187571D01*
X13566905Y-14425667D02*
X13557381Y-14416143D01*
X13538333Y-14387571D01*
X13528809Y-14368524D01*
X13519286Y-14339952D01*
X13509762Y-14292333D01*
X13509762Y-14254238D01*
X13519286Y-14206619D01*
X13528809Y-14178048D01*
X13538333Y-14159000D01*
X13557381Y-14130428D01*
X13566905Y-14120905D01*
X13728809Y-14216143D02*
X13728809Y-14349476D01*
X13681190Y-14139952D02*
X13633571Y-14282809D01*
X13757381Y-14282809D01*
X13985952Y-14349476D02*
X13985952Y-14149476D01*
X14071667Y-14349476D02*
X14071667Y-14244714D01*
X14062143Y-14225667D01*
X14043095Y-14216143D01*
X14014524Y-14216143D01*
X13995476Y-14225667D01*
X13985952Y-14235190D01*
X14195476Y-14349476D02*
X14176428Y-14339952D01*
X14166905Y-14330428D01*
X14157381Y-14311381D01*
X14157381Y-14254238D01*
X14166905Y-14235190D01*
X14176428Y-14225667D01*
X14195476Y-14216143D01*
X14224048Y-14216143D01*
X14243095Y-14225667D01*
X14252619Y-14235190D01*
X14262143Y-14254238D01*
X14262143Y-14311381D01*
X14252619Y-14330428D01*
X14243095Y-14339952D01*
X14224048Y-14349476D01*
X14195476Y-14349476D01*
X14376428Y-14349476D02*
X14357381Y-14339952D01*
X14347857Y-14320905D01*
X14347857Y-14149476D01*
X14528809Y-14339952D02*
X14509762Y-14349476D01*
X14471667Y-14349476D01*
X14452619Y-14339952D01*
X14443095Y-14320905D01*
X14443095Y-14244714D01*
X14452619Y-14225667D01*
X14471667Y-14216143D01*
X14509762Y-14216143D01*
X14528809Y-14225667D01*
X14538333Y-14244714D01*
X14538333Y-14263762D01*
X14443095Y-14282809D01*
X14614524Y-14339952D02*
X14633571Y-14349476D01*
X14671667Y-14349476D01*
X14690714Y-14339952D01*
X14700238Y-14320905D01*
X14700238Y-14311381D01*
X14690714Y-14292333D01*
X14671667Y-14282809D01*
X14643095Y-14282809D01*
X14624048Y-14273286D01*
X14614524Y-14254238D01*
X14614524Y-14244714D01*
X14624048Y-14225667D01*
X14643095Y-14216143D01*
X14671667Y-14216143D01*
X14690714Y-14225667D01*
X14766905Y-14425667D02*
X14776428Y-14416143D01*
X14795476Y-14387571D01*
X14805000Y-14368524D01*
X14814524Y-14339952D01*
X14824048Y-14292333D01*
X14824048Y-14254238D01*
X14814524Y-14206619D01*
X14805000Y-14178048D01*
X14795476Y-14159000D01*
X14776428Y-14130428D01*
X14766905Y-14120905D01*
D14*
X9955000Y-14483000D02*
X9955000Y-14563000D01*
X9915000Y-14523000D02*
X9995000Y-14523000D01*
D11*
X10290714Y-14413476D02*
X10309762Y-14413476D01*
X10328810Y-14423000D01*
X10338333Y-14432524D01*
X10347857Y-14451571D01*
X10357381Y-14489667D01*
X10357381Y-14537286D01*
X10347857Y-14575381D01*
X10338333Y-14594428D01*
X10328810Y-14603952D01*
X10309762Y-14613476D01*
X10290714Y-14613476D01*
X10271667Y-14603952D01*
X10262143Y-14594428D01*
X10252619Y-14575381D01*
X10243095Y-14537286D01*
X10243095Y-14489667D01*
X10252619Y-14451571D01*
X10262143Y-14432524D01*
X10271667Y-14423000D01*
X10290714Y-14413476D01*
X10443095Y-14594428D02*
X10452619Y-14603952D01*
X10443095Y-14613476D01*
X10433571Y-14603952D01*
X10443095Y-14594428D01*
X10443095Y-14613476D01*
X10566905Y-14499190D02*
X10547857Y-14489667D01*
X10538333Y-14480143D01*
X10528810Y-14461095D01*
X10528810Y-14451571D01*
X10538333Y-14432524D01*
X10547857Y-14423000D01*
X10566905Y-14413476D01*
X10605000Y-14413476D01*
X10624048Y-14423000D01*
X10633571Y-14432524D01*
X10643095Y-14451571D01*
X10643095Y-14461095D01*
X10633571Y-14480143D01*
X10624048Y-14489667D01*
X10605000Y-14499190D01*
X10566905Y-14499190D01*
X10547857Y-14508714D01*
X10538333Y-14518238D01*
X10528810Y-14537286D01*
X10528810Y-14575381D01*
X10538333Y-14594428D01*
X10547857Y-14603952D01*
X10566905Y-14613476D01*
X10605000Y-14613476D01*
X10624048Y-14603952D01*
X10633571Y-14594428D01*
X10643095Y-14575381D01*
X10643095Y-14537286D01*
X10633571Y-14518238D01*
X10624048Y-14508714D01*
X10605000Y-14499190D01*
X10766905Y-14413476D02*
X10785952Y-14413476D01*
X10805000Y-14423000D01*
X10814524Y-14432524D01*
X10824048Y-14451571D01*
X10833571Y-14489667D01*
X10833571Y-14537286D01*
X10824048Y-14575381D01*
X10814524Y-14594428D01*
X10805000Y-14603952D01*
X10785952Y-14613476D01*
X10766905Y-14613476D01*
X10747857Y-14603952D01*
X10738333Y-14594428D01*
X10728810Y-14575381D01*
X10719286Y-14537286D01*
X10719286Y-14489667D01*
X10728810Y-14451571D01*
X10738333Y-14432524D01*
X10747857Y-14423000D01*
X10766905Y-14413476D01*
X10957381Y-14413476D02*
X10976429Y-14413476D01*
X10995476Y-14423000D01*
X11005000Y-14432524D01*
X11014524Y-14451571D01*
X11024048Y-14489667D01*
X11024048Y-14537286D01*
X11014524Y-14575381D01*
X11005000Y-14594428D01*
X10995476Y-14603952D01*
X10976429Y-14613476D01*
X10957381Y-14613476D01*
X10938333Y-14603952D01*
X10928810Y-14594428D01*
X10919286Y-14575381D01*
X10909762Y-14537286D01*
X10909762Y-14489667D01*
X10919286Y-14451571D01*
X10928810Y-14432524D01*
X10938333Y-14423000D01*
X10957381Y-14413476D01*
X11109762Y-14613476D02*
X11109762Y-14480143D01*
X11109762Y-14499190D02*
X11119286Y-14489667D01*
X11138333Y-14480143D01*
X11166905Y-14480143D01*
X11185952Y-14489667D01*
X11195476Y-14508714D01*
X11195476Y-14613476D01*
X11195476Y-14508714D02*
X11205000Y-14489667D01*
X11224048Y-14480143D01*
X11252619Y-14480143D01*
X11271667Y-14489667D01*
X11281190Y-14508714D01*
X11281190Y-14613476D01*
X11376428Y-14613476D02*
X11376428Y-14480143D01*
X11376428Y-14499190D02*
X11385952Y-14489667D01*
X11405000Y-14480143D01*
X11433571Y-14480143D01*
X11452619Y-14489667D01*
X11462143Y-14508714D01*
X11462143Y-14613476D01*
X11462143Y-14508714D02*
X11471667Y-14489667D01*
X11490714Y-14480143D01*
X11519286Y-14480143D01*
X11538333Y-14489667D01*
X11547857Y-14508714D01*
X11547857Y-14613476D01*
X11938333Y-14403952D02*
X11766905Y-14661095D01*
X12195476Y-14413476D02*
X12214524Y-14413476D01*
X12233571Y-14423000D01*
X12243095Y-14432524D01*
X12252619Y-14451571D01*
X12262143Y-14489667D01*
X12262143Y-14537286D01*
X12252619Y-14575381D01*
X12243095Y-14594428D01*
X12233571Y-14603952D01*
X12214524Y-14613476D01*
X12195476Y-14613476D01*
X12176428Y-14603952D01*
X12166905Y-14594428D01*
X12157381Y-14575381D01*
X12147857Y-14537286D01*
X12147857Y-14489667D01*
X12157381Y-14451571D01*
X12166905Y-14432524D01*
X12176428Y-14423000D01*
X12195476Y-14413476D01*
X12347857Y-14594428D02*
X12357381Y-14603952D01*
X12347857Y-14613476D01*
X12338333Y-14603952D01*
X12347857Y-14594428D01*
X12347857Y-14613476D01*
X12481190Y-14413476D02*
X12500238Y-14413476D01*
X12519286Y-14423000D01*
X12528809Y-14432524D01*
X12538333Y-14451571D01*
X12547857Y-14489667D01*
X12547857Y-14537286D01*
X12538333Y-14575381D01*
X12528809Y-14594428D01*
X12519286Y-14603952D01*
X12500238Y-14613476D01*
X12481190Y-14613476D01*
X12462143Y-14603952D01*
X12452619Y-14594428D01*
X12443095Y-14575381D01*
X12433571Y-14537286D01*
X12433571Y-14489667D01*
X12443095Y-14451571D01*
X12452619Y-14432524D01*
X12462143Y-14423000D01*
X12481190Y-14413476D01*
X12614524Y-14413476D02*
X12738333Y-14413476D01*
X12671667Y-14489667D01*
X12700238Y-14489667D01*
X12719286Y-14499190D01*
X12728809Y-14508714D01*
X12738333Y-14527762D01*
X12738333Y-14575381D01*
X12728809Y-14594428D01*
X12719286Y-14603952D01*
X12700238Y-14613476D01*
X12643095Y-14613476D01*
X12624048Y-14603952D01*
X12614524Y-14594428D01*
X12928809Y-14613476D02*
X12814524Y-14613476D01*
X12871667Y-14613476D02*
X12871667Y-14413476D01*
X12852619Y-14442048D01*
X12833571Y-14461095D01*
X12814524Y-14470619D01*
X13109762Y-14413476D02*
X13014524Y-14413476D01*
X13005000Y-14508714D01*
X13014524Y-14499190D01*
X13033571Y-14489667D01*
X13081190Y-14489667D01*
X13100238Y-14499190D01*
X13109762Y-14508714D01*
X13119286Y-14527762D01*
X13119286Y-14575381D01*
X13109762Y-14594428D01*
X13100238Y-14603952D01*
X13081190Y-14613476D01*
X13033571Y-14613476D01*
X13014524Y-14603952D01*
X13005000Y-14594428D01*
X13195476Y-14413476D02*
X13195476Y-14451571D01*
X13271667Y-14413476D02*
X13271667Y-14451571D01*
X13566905Y-14689667D02*
X13557381Y-14680143D01*
X13538333Y-14651571D01*
X13528809Y-14632524D01*
X13519286Y-14603952D01*
X13509762Y-14556333D01*
X13509762Y-14518238D01*
X13519286Y-14470619D01*
X13528809Y-14442048D01*
X13538333Y-14423000D01*
X13557381Y-14394428D01*
X13566905Y-14384905D01*
X13633571Y-14432524D02*
X13643095Y-14423000D01*
X13662143Y-14413476D01*
X13709762Y-14413476D01*
X13728809Y-14423000D01*
X13738333Y-14432524D01*
X13747857Y-14451571D01*
X13747857Y-14470619D01*
X13738333Y-14499190D01*
X13624048Y-14613476D01*
X13747857Y-14613476D01*
X13985952Y-14613476D02*
X13985952Y-14413476D01*
X14071667Y-14613476D02*
X14071667Y-14508714D01*
X14062143Y-14489667D01*
X14043095Y-14480143D01*
X14014524Y-14480143D01*
X13995476Y-14489667D01*
X13985952Y-14499190D01*
X14195476Y-14613476D02*
X14176428Y-14603952D01*
X14166905Y-14594428D01*
X14157381Y-14575381D01*
X14157381Y-14518238D01*
X14166905Y-14499190D01*
X14176428Y-14489667D01*
X14195476Y-14480143D01*
X14224048Y-14480143D01*
X14243095Y-14489667D01*
X14252619Y-14499190D01*
X14262143Y-14518238D01*
X14262143Y-14575381D01*
X14252619Y-14594428D01*
X14243095Y-14603952D01*
X14224048Y-14613476D01*
X14195476Y-14613476D01*
X14376428Y-14613476D02*
X14357381Y-14603952D01*
X14347857Y-14584905D01*
X14347857Y-14413476D01*
X14528809Y-14603952D02*
X14509762Y-14613476D01*
X14471667Y-14613476D01*
X14452619Y-14603952D01*
X14443095Y-14584905D01*
X14443095Y-14508714D01*
X14452619Y-14489667D01*
X14471667Y-14480143D01*
X14509762Y-14480143D01*
X14528809Y-14489667D01*
X14538333Y-14508714D01*
X14538333Y-14527762D01*
X14443095Y-14546809D01*
X14614524Y-14603952D02*
X14633571Y-14613476D01*
X14671667Y-14613476D01*
X14690714Y-14603952D01*
X14700238Y-14584905D01*
X14700238Y-14575381D01*
X14690714Y-14556333D01*
X14671667Y-14546809D01*
X14643095Y-14546809D01*
X14624048Y-14537286D01*
X14614524Y-14518238D01*
X14614524Y-14508714D01*
X14624048Y-14489667D01*
X14643095Y-14480143D01*
X14671667Y-14480143D01*
X14690714Y-14489667D01*
X14766905Y-14689667D02*
X14776428Y-14680143D01*
X14795476Y-14651571D01*
X14805000Y-14632524D01*
X14814524Y-14603952D01*
X14824048Y-14556333D01*
X14824048Y-14518238D01*
X14814524Y-14470619D01*
X14805000Y-14442048D01*
X14795476Y-14423000D01*
X14776428Y-14394428D01*
X14766905Y-14384905D01*
D15*
X9981088Y-14820588D02*
X9981088Y-14753412D01*
X9913912Y-14753412D01*
X9913912Y-14820588D01*
X9981088Y-14820588D01*
D11*
X10290714Y-14677476D02*
X10309762Y-14677476D01*
X10328810Y-14687000D01*
X10338333Y-14696524D01*
X10347857Y-14715571D01*
X10357381Y-14753667D01*
X10357381Y-14801286D01*
X10347857Y-14839381D01*
X10338333Y-14858428D01*
X10328810Y-14867952D01*
X10309762Y-14877476D01*
X10290714Y-14877476D01*
X10271667Y-14867952D01*
X10262143Y-14858428D01*
X10252619Y-14839381D01*
X10243095Y-14801286D01*
X10243095Y-14753667D01*
X10252619Y-14715571D01*
X10262143Y-14696524D01*
X10271667Y-14687000D01*
X10290714Y-14677476D01*
X10443095Y-14858428D02*
X10452619Y-14867952D01*
X10443095Y-14877476D01*
X10433571Y-14867952D01*
X10443095Y-14858428D01*
X10443095Y-14877476D01*
X10547857Y-14877476D02*
X10585952Y-14877476D01*
X10605000Y-14867952D01*
X10614524Y-14858428D01*
X10633571Y-14829857D01*
X10643095Y-14791762D01*
X10643095Y-14715571D01*
X10633571Y-14696524D01*
X10624048Y-14687000D01*
X10605000Y-14677476D01*
X10566905Y-14677476D01*
X10547857Y-14687000D01*
X10538333Y-14696524D01*
X10528810Y-14715571D01*
X10528810Y-14763190D01*
X10538333Y-14782238D01*
X10547857Y-14791762D01*
X10566905Y-14801286D01*
X10605000Y-14801286D01*
X10624048Y-14791762D01*
X10633571Y-14782238D01*
X10643095Y-14763190D01*
X10824048Y-14677476D02*
X10728810Y-14677476D01*
X10719286Y-14772714D01*
X10728810Y-14763190D01*
X10747857Y-14753667D01*
X10795476Y-14753667D01*
X10814524Y-14763190D01*
X10824048Y-14772714D01*
X10833571Y-14791762D01*
X10833571Y-14839381D01*
X10824048Y-14858428D01*
X10814524Y-14867952D01*
X10795476Y-14877476D01*
X10747857Y-14877476D01*
X10728810Y-14867952D01*
X10719286Y-14858428D01*
X10957381Y-14677476D02*
X10976429Y-14677476D01*
X10995476Y-14687000D01*
X11005000Y-14696524D01*
X11014524Y-14715571D01*
X11024048Y-14753667D01*
X11024048Y-14801286D01*
X11014524Y-14839381D01*
X11005000Y-14858428D01*
X10995476Y-14867952D01*
X10976429Y-14877476D01*
X10957381Y-14877476D01*
X10938333Y-14867952D01*
X10928810Y-14858428D01*
X10919286Y-14839381D01*
X10909762Y-14801286D01*
X10909762Y-14753667D01*
X10919286Y-14715571D01*
X10928810Y-14696524D01*
X10938333Y-14687000D01*
X10957381Y-14677476D01*
X11109762Y-14877476D02*
X11109762Y-14744143D01*
X11109762Y-14763190D02*
X11119286Y-14753667D01*
X11138333Y-14744143D01*
X11166905Y-14744143D01*
X11185952Y-14753667D01*
X11195476Y-14772714D01*
X11195476Y-14877476D01*
X11195476Y-14772714D02*
X11205000Y-14753667D01*
X11224048Y-14744143D01*
X11252619Y-14744143D01*
X11271667Y-14753667D01*
X11281190Y-14772714D01*
X11281190Y-14877476D01*
X11376428Y-14877476D02*
X11376428Y-14744143D01*
X11376428Y-14763190D02*
X11385952Y-14753667D01*
X11405000Y-14744143D01*
X11433571Y-14744143D01*
X11452619Y-14753667D01*
X11462143Y-14772714D01*
X11462143Y-14877476D01*
X11462143Y-14772714D02*
X11471667Y-14753667D01*
X11490714Y-14744143D01*
X11519286Y-14744143D01*
X11538333Y-14753667D01*
X11547857Y-14772714D01*
X11547857Y-14877476D01*
X11938333Y-14667952D02*
X11766905Y-14925095D01*
X12195476Y-14677476D02*
X12214524Y-14677476D01*
X12233571Y-14687000D01*
X12243095Y-14696524D01*
X12252619Y-14715571D01*
X12262143Y-14753667D01*
X12262143Y-14801286D01*
X12252619Y-14839381D01*
X12243095Y-14858428D01*
X12233571Y-14867952D01*
X12214524Y-14877476D01*
X12195476Y-14877476D01*
X12176428Y-14867952D01*
X12166905Y-14858428D01*
X12157381Y-14839381D01*
X12147857Y-14801286D01*
X12147857Y-14753667D01*
X12157381Y-14715571D01*
X12166905Y-14696524D01*
X12176428Y-14687000D01*
X12195476Y-14677476D01*
X12347857Y-14858428D02*
X12357381Y-14867952D01*
X12347857Y-14877476D01*
X12338333Y-14867952D01*
X12347857Y-14858428D01*
X12347857Y-14877476D01*
X12481190Y-14677476D02*
X12500238Y-14677476D01*
X12519286Y-14687000D01*
X12528809Y-14696524D01*
X12538333Y-14715571D01*
X12547857Y-14753667D01*
X12547857Y-14801286D01*
X12538333Y-14839381D01*
X12528809Y-14858428D01*
X12519286Y-14867952D01*
X12500238Y-14877476D01*
X12481190Y-14877476D01*
X12462143Y-14867952D01*
X12452619Y-14858428D01*
X12443095Y-14839381D01*
X12433571Y-14801286D01*
X12433571Y-14753667D01*
X12443095Y-14715571D01*
X12452619Y-14696524D01*
X12462143Y-14687000D01*
X12481190Y-14677476D01*
X12614524Y-14677476D02*
X12738333Y-14677476D01*
X12671667Y-14753667D01*
X12700238Y-14753667D01*
X12719286Y-14763190D01*
X12728809Y-14772714D01*
X12738333Y-14791762D01*
X12738333Y-14839381D01*
X12728809Y-14858428D01*
X12719286Y-14867952D01*
X12700238Y-14877476D01*
X12643095Y-14877476D01*
X12624048Y-14867952D01*
X12614524Y-14858428D01*
X12805000Y-14677476D02*
X12938333Y-14677476D01*
X12852619Y-14877476D01*
X13100238Y-14744143D02*
X13100238Y-14877476D01*
X13052619Y-14667952D02*
X13005000Y-14810809D01*
X13128809Y-14810809D01*
X13195476Y-14677476D02*
X13195476Y-14715571D01*
X13271667Y-14677476D02*
X13271667Y-14715571D01*
X13566905Y-14953667D02*
X13557381Y-14944143D01*
X13538333Y-14915571D01*
X13528809Y-14896524D01*
X13519286Y-14867952D01*
X13509762Y-14820333D01*
X13509762Y-14782238D01*
X13519286Y-14734619D01*
X13528809Y-14706048D01*
X13538333Y-14687000D01*
X13557381Y-14658428D01*
X13566905Y-14648905D01*
X13671667Y-14763190D02*
X13652619Y-14753667D01*
X13643095Y-14744143D01*
X13633571Y-14725095D01*
X13633571Y-14715571D01*
X13643095Y-14696524D01*
X13652619Y-14687000D01*
X13671667Y-14677476D01*
X13709762Y-14677476D01*
X13728809Y-14687000D01*
X13738333Y-14696524D01*
X13747857Y-14715571D01*
X13747857Y-14725095D01*
X13738333Y-14744143D01*
X13728809Y-14753667D01*
X13709762Y-14763190D01*
X13671667Y-14763190D01*
X13652619Y-14772714D01*
X13643095Y-14782238D01*
X13633571Y-14801286D01*
X13633571Y-14839381D01*
X13643095Y-14858428D01*
X13652619Y-14867952D01*
X13671667Y-14877476D01*
X13709762Y-14877476D01*
X13728809Y-14867952D01*
X13738333Y-14858428D01*
X13747857Y-14839381D01*
X13747857Y-14801286D01*
X13738333Y-14782238D01*
X13728809Y-14772714D01*
X13709762Y-14763190D01*
X13985952Y-14877476D02*
X13985952Y-14677476D01*
X14071667Y-14877476D02*
X14071667Y-14772714D01*
X14062143Y-14753667D01*
X14043095Y-14744143D01*
X14014524Y-14744143D01*
X13995476Y-14753667D01*
X13985952Y-14763190D01*
X14195476Y-14877476D02*
X14176428Y-14867952D01*
X14166905Y-14858428D01*
X14157381Y-14839381D01*
X14157381Y-14782238D01*
X14166905Y-14763190D01*
X14176428Y-14753667D01*
X14195476Y-14744143D01*
X14224048Y-14744143D01*
X14243095Y-14753667D01*
X14252619Y-14763190D01*
X14262143Y-14782238D01*
X14262143Y-14839381D01*
X14252619Y-14858428D01*
X14243095Y-14867952D01*
X14224048Y-14877476D01*
X14195476Y-14877476D01*
X14376428Y-14877476D02*
X14357381Y-14867952D01*
X14347857Y-14848905D01*
X14347857Y-14677476D01*
X14528809Y-14867952D02*
X14509762Y-14877476D01*
X14471667Y-14877476D01*
X14452619Y-14867952D01*
X14443095Y-14848905D01*
X14443095Y-14772714D01*
X14452619Y-14753667D01*
X14471667Y-14744143D01*
X14509762Y-14744143D01*
X14528809Y-14753667D01*
X14538333Y-14772714D01*
X14538333Y-14791762D01*
X14443095Y-14810809D01*
X14614524Y-14867952D02*
X14633571Y-14877476D01*
X14671667Y-14877476D01*
X14690714Y-14867952D01*
X14700238Y-14848905D01*
X14700238Y-14839381D01*
X14690714Y-14820333D01*
X14671667Y-14810809D01*
X14643095Y-14810809D01*
X14624048Y-14801286D01*
X14614524Y-14782238D01*
X14614524Y-14772714D01*
X14624048Y-14753667D01*
X14643095Y-14744143D01*
X14671667Y-14744143D01*
X14690714Y-14753667D01*
X14766905Y-14953667D02*
X14776428Y-14944143D01*
X14795476Y-14915571D01*
X14805000Y-14896524D01*
X14814524Y-14867952D01*
X14824048Y-14820333D01*
X14824048Y-14782238D01*
X14814524Y-14734619D01*
X14805000Y-14706048D01*
X14795476Y-14687000D01*
X14776428Y-14658428D01*
X14766905Y-14648905D01*
D16*
X9945000Y-15101000D02*
X9995000Y-15051000D01*
X9945000Y-15001000D01*
X9895000Y-15051000D01*
X9945000Y-15101000D01*
D11*
X10357381Y-15141476D02*
X10243095Y-15141476D01*
X10300238Y-15141476D02*
X10300238Y-14941476D01*
X10281190Y-14970048D01*
X10262143Y-14989095D01*
X10243095Y-14998619D01*
X10443095Y-15122428D02*
X10452619Y-15131952D01*
X10443095Y-15141476D01*
X10433571Y-15131952D01*
X10443095Y-15122428D01*
X10443095Y-15141476D01*
X10576429Y-14941476D02*
X10595476Y-14941476D01*
X10614524Y-14951000D01*
X10624048Y-14960524D01*
X10633571Y-14979571D01*
X10643095Y-15017667D01*
X10643095Y-15065286D01*
X10633571Y-15103381D01*
X10624048Y-15122428D01*
X10614524Y-15131952D01*
X10595476Y-15141476D01*
X10576429Y-15141476D01*
X10557381Y-15131952D01*
X10547857Y-15122428D01*
X10538333Y-15103381D01*
X10528810Y-15065286D01*
X10528810Y-15017667D01*
X10538333Y-14979571D01*
X10547857Y-14960524D01*
X10557381Y-14951000D01*
X10576429Y-14941476D01*
X10766905Y-14941476D02*
X10785952Y-14941476D01*
X10805000Y-14951000D01*
X10814524Y-14960524D01*
X10824048Y-14979571D01*
X10833571Y-15017667D01*
X10833571Y-15065286D01*
X10824048Y-15103381D01*
X10814524Y-15122428D01*
X10805000Y-15131952D01*
X10785952Y-15141476D01*
X10766905Y-15141476D01*
X10747857Y-15131952D01*
X10738333Y-15122428D01*
X10728810Y-15103381D01*
X10719286Y-15065286D01*
X10719286Y-15017667D01*
X10728810Y-14979571D01*
X10738333Y-14960524D01*
X10747857Y-14951000D01*
X10766905Y-14941476D01*
X10957381Y-14941476D02*
X10976429Y-14941476D01*
X10995476Y-14951000D01*
X11005000Y-14960524D01*
X11014524Y-14979571D01*
X11024048Y-15017667D01*
X11024048Y-15065286D01*
X11014524Y-15103381D01*
X11005000Y-15122428D01*
X10995476Y-15131952D01*
X10976429Y-15141476D01*
X10957381Y-15141476D01*
X10938333Y-15131952D01*
X10928810Y-15122428D01*
X10919286Y-15103381D01*
X10909762Y-15065286D01*
X10909762Y-15017667D01*
X10919286Y-14979571D01*
X10928810Y-14960524D01*
X10938333Y-14951000D01*
X10957381Y-14941476D01*
X11109762Y-15141476D02*
X11109762Y-15008143D01*
X11109762Y-15027190D02*
X11119286Y-15017667D01*
X11138333Y-15008143D01*
X11166905Y-15008143D01*
X11185952Y-15017667D01*
X11195476Y-15036714D01*
X11195476Y-15141476D01*
X11195476Y-15036714D02*
X11205000Y-15017667D01*
X11224048Y-15008143D01*
X11252619Y-15008143D01*
X11271667Y-15017667D01*
X11281190Y-15036714D01*
X11281190Y-15141476D01*
X11376428Y-15141476D02*
X11376428Y-15008143D01*
X11376428Y-15027190D02*
X11385952Y-15017667D01*
X11405000Y-15008143D01*
X11433571Y-15008143D01*
X11452619Y-15017667D01*
X11462143Y-15036714D01*
X11462143Y-15141476D01*
X11462143Y-15036714D02*
X11471667Y-15017667D01*
X11490714Y-15008143D01*
X11519286Y-15008143D01*
X11538333Y-15017667D01*
X11547857Y-15036714D01*
X11547857Y-15141476D01*
X11938333Y-14931952D02*
X11766905Y-15189095D01*
X12195476Y-14941476D02*
X12214524Y-14941476D01*
X12233571Y-14951000D01*
X12243095Y-14960524D01*
X12252619Y-14979571D01*
X12262143Y-15017667D01*
X12262143Y-15065286D01*
X12252619Y-15103381D01*
X12243095Y-15122428D01*
X12233571Y-15131952D01*
X12214524Y-15141476D01*
X12195476Y-15141476D01*
X12176428Y-15131952D01*
X12166905Y-15122428D01*
X12157381Y-15103381D01*
X12147857Y-15065286D01*
X12147857Y-15017667D01*
X12157381Y-14979571D01*
X12166905Y-14960524D01*
X12176428Y-14951000D01*
X12195476Y-14941476D01*
X12347857Y-15122428D02*
X12357381Y-15131952D01*
X12347857Y-15141476D01*
X12338333Y-15131952D01*
X12347857Y-15122428D01*
X12347857Y-15141476D01*
X12481190Y-14941476D02*
X12500238Y-14941476D01*
X12519286Y-14951000D01*
X12528809Y-14960524D01*
X12538333Y-14979571D01*
X12547857Y-15017667D01*
X12547857Y-15065286D01*
X12538333Y-15103381D01*
X12528809Y-15122428D01*
X12519286Y-15131952D01*
X12500238Y-15141476D01*
X12481190Y-15141476D01*
X12462143Y-15131952D01*
X12452619Y-15122428D01*
X12443095Y-15103381D01*
X12433571Y-15065286D01*
X12433571Y-15017667D01*
X12443095Y-14979571D01*
X12452619Y-14960524D01*
X12462143Y-14951000D01*
X12481190Y-14941476D01*
X12614524Y-14941476D02*
X12738333Y-14941476D01*
X12671667Y-15017667D01*
X12700238Y-15017667D01*
X12719286Y-15027190D01*
X12728809Y-15036714D01*
X12738333Y-15055762D01*
X12738333Y-15103381D01*
X12728809Y-15122428D01*
X12719286Y-15131952D01*
X12700238Y-15141476D01*
X12643095Y-15141476D01*
X12624048Y-15131952D01*
X12614524Y-15122428D01*
X12833571Y-15141476D02*
X12871667Y-15141476D01*
X12890714Y-15131952D01*
X12900238Y-15122428D01*
X12919286Y-15093857D01*
X12928809Y-15055762D01*
X12928809Y-14979571D01*
X12919286Y-14960524D01*
X12909762Y-14951000D01*
X12890714Y-14941476D01*
X12852619Y-14941476D01*
X12833571Y-14951000D01*
X12824048Y-14960524D01*
X12814524Y-14979571D01*
X12814524Y-15027190D01*
X12824048Y-15046238D01*
X12833571Y-15055762D01*
X12852619Y-15065286D01*
X12890714Y-15065286D01*
X12909762Y-15055762D01*
X12919286Y-15046238D01*
X12928809Y-15027190D01*
X13100238Y-15008143D02*
X13100238Y-15141476D01*
X13052619Y-14931952D02*
X13005000Y-15074809D01*
X13128809Y-15074809D01*
X13195476Y-14941476D02*
X13195476Y-14979571D01*
X13271667Y-14941476D02*
X13271667Y-14979571D01*
X13566905Y-15217667D02*
X13557381Y-15208143D01*
X13538333Y-15179571D01*
X13528809Y-15160524D01*
X13519286Y-15131952D01*
X13509762Y-15084333D01*
X13509762Y-15046238D01*
X13519286Y-14998619D01*
X13528809Y-14970048D01*
X13538333Y-14951000D01*
X13557381Y-14922428D01*
X13566905Y-14912905D01*
X13728809Y-15008143D02*
X13728809Y-15141476D01*
X13681190Y-14931952D02*
X13633571Y-15074809D01*
X13757381Y-15074809D01*
X13919286Y-14941476D02*
X13881190Y-14941476D01*
X13862143Y-14951000D01*
X13852619Y-14960524D01*
X13833571Y-14989095D01*
X13824048Y-15027190D01*
X13824048Y-15103381D01*
X13833571Y-15122428D01*
X13843095Y-15131952D01*
X13862143Y-15141476D01*
X13900238Y-15141476D01*
X13919286Y-15131952D01*
X13928809Y-15122428D01*
X13938333Y-15103381D01*
X13938333Y-15055762D01*
X13928809Y-15036714D01*
X13919286Y-15027190D01*
X13900238Y-15017667D01*
X13862143Y-15017667D01*
X13843095Y-15027190D01*
X13833571Y-15036714D01*
X13824048Y-15055762D01*
X14176428Y-15141476D02*
X14176428Y-14941476D01*
X14262143Y-15141476D02*
X14262143Y-15036714D01*
X14252619Y-15017667D01*
X14233571Y-15008143D01*
X14205000Y-15008143D01*
X14185952Y-15017667D01*
X14176428Y-15027190D01*
X14385952Y-15141476D02*
X14366905Y-15131952D01*
X14357381Y-15122428D01*
X14347857Y-15103381D01*
X14347857Y-15046238D01*
X14357381Y-15027190D01*
X14366905Y-15017667D01*
X14385952Y-15008143D01*
X14414524Y-15008143D01*
X14433571Y-15017667D01*
X14443095Y-15027190D01*
X14452619Y-15046238D01*
X14452619Y-15103381D01*
X14443095Y-15122428D01*
X14433571Y-15131952D01*
X14414524Y-15141476D01*
X14385952Y-15141476D01*
X14566905Y-15141476D02*
X14547857Y-15131952D01*
X14538333Y-15112905D01*
X14538333Y-14941476D01*
X14719286Y-15131952D02*
X14700238Y-15141476D01*
X14662143Y-15141476D01*
X14643095Y-15131952D01*
X14633571Y-15112905D01*
X14633571Y-15036714D01*
X14643095Y-15017667D01*
X14662143Y-15008143D01*
X14700238Y-15008143D01*
X14719286Y-15017667D01*
X14728809Y-15036714D01*
X14728809Y-15055762D01*
X14633571Y-15074809D01*
X14805000Y-15131952D02*
X14824048Y-15141476D01*
X14862143Y-15141476D01*
X14881190Y-15131952D01*
X14890714Y-15112905D01*
X14890714Y-15103381D01*
X14881190Y-15084333D01*
X14862143Y-15074809D01*
X14833571Y-15074809D01*
X14814524Y-15065286D01*
X14805000Y-15046238D01*
X14805000Y-15036714D01*
X14814524Y-15017667D01*
X14833571Y-15008143D01*
X14862143Y-15008143D01*
X14881190Y-15017667D01*
X14957381Y-15217667D02*
X14966905Y-15208143D01*
X14985952Y-15179571D01*
X14995476Y-15160524D01*
X15005000Y-15131952D01*
X15014524Y-15084333D01*
X15014524Y-15046238D01*
X15005000Y-14998619D01*
X14995476Y-14970048D01*
X14985952Y-14951000D01*
X14966905Y-14922428D01*
X14957381Y-14912905D01*
D17*
X9865000Y-15250000D02*
X9995000Y-15380000D01*
X9995000Y-15250000D02*
X9865000Y-15380000D01*
X9995000Y-15315000D02*
G75*
G03*
X9995000Y-15315000I-65000J0D01*
G01*
D11*
X10357381Y-15405476D02*
X10243095Y-15405476D01*
X10300238Y-15405476D02*
X10300238Y-15205476D01*
X10281190Y-15234048D01*
X10262143Y-15253095D01*
X10243095Y-15262619D01*
X10443095Y-15386428D02*
X10452619Y-15395952D01*
X10443095Y-15405476D01*
X10433571Y-15395952D01*
X10443095Y-15386428D01*
X10443095Y-15405476D01*
X10519286Y-15205476D02*
X10643095Y-15205476D01*
X10576429Y-15281667D01*
X10605000Y-15281667D01*
X10624048Y-15291190D01*
X10633571Y-15300714D01*
X10643095Y-15319762D01*
X10643095Y-15367381D01*
X10633571Y-15386428D01*
X10624048Y-15395952D01*
X10605000Y-15405476D01*
X10547857Y-15405476D01*
X10528810Y-15395952D01*
X10519286Y-15386428D01*
X10766905Y-15205476D02*
X10785952Y-15205476D01*
X10805000Y-15215000D01*
X10814524Y-15224524D01*
X10824048Y-15243571D01*
X10833571Y-15281667D01*
X10833571Y-15329286D01*
X10824048Y-15367381D01*
X10814524Y-15386428D01*
X10805000Y-15395952D01*
X10785952Y-15405476D01*
X10766905Y-15405476D01*
X10747857Y-15395952D01*
X10738333Y-15386428D01*
X10728810Y-15367381D01*
X10719286Y-15329286D01*
X10719286Y-15281667D01*
X10728810Y-15243571D01*
X10738333Y-15224524D01*
X10747857Y-15215000D01*
X10766905Y-15205476D01*
X10957381Y-15205476D02*
X10976429Y-15205476D01*
X10995476Y-15215000D01*
X11005000Y-15224524D01*
X11014524Y-15243571D01*
X11024048Y-15281667D01*
X11024048Y-15329286D01*
X11014524Y-15367381D01*
X11005000Y-15386428D01*
X10995476Y-15395952D01*
X10976429Y-15405476D01*
X10957381Y-15405476D01*
X10938333Y-15395952D01*
X10928810Y-15386428D01*
X10919286Y-15367381D01*
X10909762Y-15329286D01*
X10909762Y-15281667D01*
X10919286Y-15243571D01*
X10928810Y-15224524D01*
X10938333Y-15215000D01*
X10957381Y-15205476D01*
X11109762Y-15405476D02*
X11109762Y-15272143D01*
X11109762Y-15291190D02*
X11119286Y-15281667D01*
X11138333Y-15272143D01*
X11166905Y-15272143D01*
X11185952Y-15281667D01*
X11195476Y-15300714D01*
X11195476Y-15405476D01*
X11195476Y-15300714D02*
X11205000Y-15281667D01*
X11224048Y-15272143D01*
X11252619Y-15272143D01*
X11271667Y-15281667D01*
X11281190Y-15300714D01*
X11281190Y-15405476D01*
X11376428Y-15405476D02*
X11376428Y-15272143D01*
X11376428Y-15291190D02*
X11385952Y-15281667D01*
X11405000Y-15272143D01*
X11433571Y-15272143D01*
X11452619Y-15281667D01*
X11462143Y-15300714D01*
X11462143Y-15405476D01*
X11462143Y-15300714D02*
X11471667Y-15281667D01*
X11490714Y-15272143D01*
X11519286Y-15272143D01*
X11538333Y-15281667D01*
X11547857Y-15300714D01*
X11547857Y-15405476D01*
X11938333Y-15195952D02*
X11766905Y-15453095D01*
X12195476Y-15205476D02*
X12214524Y-15205476D01*
X12233571Y-15215000D01*
X12243095Y-15224524D01*
X12252619Y-15243571D01*
X12262143Y-15281667D01*
X12262143Y-15329286D01*
X12252619Y-15367381D01*
X12243095Y-15386428D01*
X12233571Y-15395952D01*
X12214524Y-15405476D01*
X12195476Y-15405476D01*
X12176428Y-15395952D01*
X12166905Y-15386428D01*
X12157381Y-15367381D01*
X12147857Y-15329286D01*
X12147857Y-15281667D01*
X12157381Y-15243571D01*
X12166905Y-15224524D01*
X12176428Y-15215000D01*
X12195476Y-15205476D01*
X12347857Y-15386428D02*
X12357381Y-15395952D01*
X12347857Y-15405476D01*
X12338333Y-15395952D01*
X12347857Y-15386428D01*
X12347857Y-15405476D01*
X12481190Y-15205476D02*
X12500238Y-15205476D01*
X12519286Y-15215000D01*
X12528809Y-15224524D01*
X12538333Y-15243571D01*
X12547857Y-15281667D01*
X12547857Y-15329286D01*
X12538333Y-15367381D01*
X12528809Y-15386428D01*
X12519286Y-15395952D01*
X12500238Y-15405476D01*
X12481190Y-15405476D01*
X12462143Y-15395952D01*
X12452619Y-15386428D01*
X12443095Y-15367381D01*
X12433571Y-15329286D01*
X12433571Y-15281667D01*
X12443095Y-15243571D01*
X12452619Y-15224524D01*
X12462143Y-15215000D01*
X12481190Y-15205476D01*
X12728809Y-15205476D02*
X12633571Y-15205476D01*
X12624048Y-15300714D01*
X12633571Y-15291190D01*
X12652619Y-15281667D01*
X12700238Y-15281667D01*
X12719286Y-15291190D01*
X12728809Y-15300714D01*
X12738333Y-15319762D01*
X12738333Y-15367381D01*
X12728809Y-15386428D01*
X12719286Y-15395952D01*
X12700238Y-15405476D01*
X12652619Y-15405476D01*
X12633571Y-15395952D01*
X12624048Y-15386428D01*
X12928809Y-15405476D02*
X12814524Y-15405476D01*
X12871667Y-15405476D02*
X12871667Y-15205476D01*
X12852619Y-15234048D01*
X12833571Y-15253095D01*
X12814524Y-15262619D01*
X13005000Y-15224524D02*
X13014524Y-15215000D01*
X13033571Y-15205476D01*
X13081190Y-15205476D01*
X13100238Y-15215000D01*
X13109762Y-15224524D01*
X13119286Y-15243571D01*
X13119286Y-15262619D01*
X13109762Y-15291190D01*
X12995476Y-15405476D01*
X13119286Y-15405476D01*
X13195476Y-15205476D02*
X13195476Y-15243571D01*
X13271667Y-15205476D02*
X13271667Y-15243571D01*
X13566905Y-15481667D02*
X13557381Y-15472143D01*
X13538333Y-15443571D01*
X13528809Y-15424524D01*
X13519286Y-15395952D01*
X13509762Y-15348333D01*
X13509762Y-15310238D01*
X13519286Y-15262619D01*
X13528809Y-15234048D01*
X13538333Y-15215000D01*
X13557381Y-15186428D01*
X13566905Y-15176905D01*
X13747857Y-15405476D02*
X13633571Y-15405476D01*
X13690714Y-15405476D02*
X13690714Y-15205476D01*
X13671667Y-15234048D01*
X13652619Y-15253095D01*
X13633571Y-15262619D01*
X13919286Y-15272143D02*
X13919286Y-15405476D01*
X13871667Y-15195952D02*
X13824048Y-15338809D01*
X13947857Y-15338809D01*
X14176428Y-15405476D02*
X14176428Y-15205476D01*
X14262143Y-15405476D02*
X14262143Y-15300714D01*
X14252619Y-15281667D01*
X14233571Y-15272143D01*
X14205000Y-15272143D01*
X14185952Y-15281667D01*
X14176428Y-15291190D01*
X14385952Y-15405476D02*
X14366905Y-15395952D01*
X14357381Y-15386428D01*
X14347857Y-15367381D01*
X14347857Y-15310238D01*
X14357381Y-15291190D01*
X14366905Y-15281667D01*
X14385952Y-15272143D01*
X14414524Y-15272143D01*
X14433571Y-15281667D01*
X14443095Y-15291190D01*
X14452619Y-15310238D01*
X14452619Y-15367381D01*
X14443095Y-15386428D01*
X14433571Y-15395952D01*
X14414524Y-15405476D01*
X14385952Y-15405476D01*
X14566905Y-15405476D02*
X14547857Y-15395952D01*
X14538333Y-15376905D01*
X14538333Y-15205476D01*
X14719286Y-15395952D02*
X14700238Y-15405476D01*
X14662143Y-15405476D01*
X14643095Y-15395952D01*
X14633571Y-15376905D01*
X14633571Y-15300714D01*
X14643095Y-15281667D01*
X14662143Y-15272143D01*
X14700238Y-15272143D01*
X14719286Y-15281667D01*
X14728809Y-15300714D01*
X14728809Y-15319762D01*
X14633571Y-15338809D01*
X14805000Y-15395952D02*
X14824048Y-15405476D01*
X14862143Y-15405476D01*
X14881190Y-15395952D01*
X14890714Y-15376905D01*
X14890714Y-15367381D01*
X14881190Y-15348333D01*
X14862143Y-15338809D01*
X14833571Y-15338809D01*
X14814524Y-15329286D01*
X14805000Y-15310238D01*
X14805000Y-15300714D01*
X14814524Y-15281667D01*
X14833571Y-15272143D01*
X14862143Y-15272143D01*
X14881190Y-15281667D01*
X14957381Y-15481667D02*
X14966905Y-15472143D01*
X14985952Y-15443571D01*
X14995476Y-15424524D01*
X15005000Y-15395952D01*
X15014524Y-15348333D01*
X15014524Y-15310238D01*
X15005000Y-15262619D01*
X14995476Y-15234048D01*
X14985952Y-15215000D01*
X14966905Y-15186428D01*
X14957381Y-15176905D01*
D18*
X9855000Y-15509000D02*
X9995000Y-15649000D01*
X9995000Y-15509000D02*
X9855000Y-15649000D01*
X9925000Y-15509000D02*
X9925000Y-15649000D01*
X9855000Y-15579000D02*
X9995000Y-15579000D01*
D11*
X10357381Y-15669476D02*
X10243095Y-15669476D01*
X10300238Y-15669476D02*
X10300238Y-15469476D01*
X10281190Y-15498048D01*
X10262143Y-15517095D01*
X10243095Y-15526619D01*
X10443095Y-15650428D02*
X10452619Y-15659952D01*
X10443095Y-15669476D01*
X10433571Y-15659952D01*
X10443095Y-15650428D01*
X10443095Y-15669476D01*
X10624048Y-15536143D02*
X10624048Y-15669476D01*
X10576429Y-15459952D02*
X10528810Y-15602809D01*
X10652619Y-15602809D01*
X10766905Y-15469476D02*
X10785952Y-15469476D01*
X10805000Y-15479000D01*
X10814524Y-15488524D01*
X10824048Y-15507571D01*
X10833571Y-15545667D01*
X10833571Y-15593286D01*
X10824048Y-15631381D01*
X10814524Y-15650428D01*
X10805000Y-15659952D01*
X10785952Y-15669476D01*
X10766905Y-15669476D01*
X10747857Y-15659952D01*
X10738333Y-15650428D01*
X10728810Y-15631381D01*
X10719286Y-15593286D01*
X10719286Y-15545667D01*
X10728810Y-15507571D01*
X10738333Y-15488524D01*
X10747857Y-15479000D01*
X10766905Y-15469476D01*
X10957381Y-15469476D02*
X10976429Y-15469476D01*
X10995476Y-15479000D01*
X11005000Y-15488524D01*
X11014524Y-15507571D01*
X11024048Y-15545667D01*
X11024048Y-15593286D01*
X11014524Y-15631381D01*
X11005000Y-15650428D01*
X10995476Y-15659952D01*
X10976429Y-15669476D01*
X10957381Y-15669476D01*
X10938333Y-15659952D01*
X10928810Y-15650428D01*
X10919286Y-15631381D01*
X10909762Y-15593286D01*
X10909762Y-15545667D01*
X10919286Y-15507571D01*
X10928810Y-15488524D01*
X10938333Y-15479000D01*
X10957381Y-15469476D01*
X11109762Y-15669476D02*
X11109762Y-15536143D01*
X11109762Y-15555190D02*
X11119286Y-15545667D01*
X11138333Y-15536143D01*
X11166905Y-15536143D01*
X11185952Y-15545667D01*
X11195476Y-15564714D01*
X11195476Y-15669476D01*
X11195476Y-15564714D02*
X11205000Y-15545667D01*
X11224048Y-15536143D01*
X11252619Y-15536143D01*
X11271667Y-15545667D01*
X11281190Y-15564714D01*
X11281190Y-15669476D01*
X11376428Y-15669476D02*
X11376428Y-15536143D01*
X11376428Y-15555190D02*
X11385952Y-15545667D01*
X11405000Y-15536143D01*
X11433571Y-15536143D01*
X11452619Y-15545667D01*
X11462143Y-15564714D01*
X11462143Y-15669476D01*
X11462143Y-15564714D02*
X11471667Y-15545667D01*
X11490714Y-15536143D01*
X11519286Y-15536143D01*
X11538333Y-15545667D01*
X11547857Y-15564714D01*
X11547857Y-15669476D01*
X11938333Y-15459952D02*
X11766905Y-15717095D01*
X12195476Y-15469476D02*
X12214524Y-15469476D01*
X12233571Y-15479000D01*
X12243095Y-15488524D01*
X12252619Y-15507571D01*
X12262143Y-15545667D01*
X12262143Y-15593286D01*
X12252619Y-15631381D01*
X12243095Y-15650428D01*
X12233571Y-15659952D01*
X12214524Y-15669476D01*
X12195476Y-15669476D01*
X12176428Y-15659952D01*
X12166905Y-15650428D01*
X12157381Y-15631381D01*
X12147857Y-15593286D01*
X12147857Y-15545667D01*
X12157381Y-15507571D01*
X12166905Y-15488524D01*
X12176428Y-15479000D01*
X12195476Y-15469476D01*
X12347857Y-15650428D02*
X12357381Y-15659952D01*
X12347857Y-15669476D01*
X12338333Y-15659952D01*
X12347857Y-15650428D01*
X12347857Y-15669476D01*
X12481190Y-15469476D02*
X12500238Y-15469476D01*
X12519286Y-15479000D01*
X12528809Y-15488524D01*
X12538333Y-15507571D01*
X12547857Y-15545667D01*
X12547857Y-15593286D01*
X12538333Y-15631381D01*
X12528809Y-15650428D01*
X12519286Y-15659952D01*
X12500238Y-15669476D01*
X12481190Y-15669476D01*
X12462143Y-15659952D01*
X12452619Y-15650428D01*
X12443095Y-15631381D01*
X12433571Y-15593286D01*
X12433571Y-15545667D01*
X12443095Y-15507571D01*
X12452619Y-15488524D01*
X12462143Y-15479000D01*
X12481190Y-15469476D01*
X12728809Y-15469476D02*
X12633571Y-15469476D01*
X12624048Y-15564714D01*
X12633571Y-15555190D01*
X12652619Y-15545667D01*
X12700238Y-15545667D01*
X12719286Y-15555190D01*
X12728809Y-15564714D01*
X12738333Y-15583762D01*
X12738333Y-15631381D01*
X12728809Y-15650428D01*
X12719286Y-15659952D01*
X12700238Y-15669476D01*
X12652619Y-15669476D01*
X12633571Y-15659952D01*
X12624048Y-15650428D01*
X12919286Y-15469476D02*
X12824048Y-15469476D01*
X12814524Y-15564714D01*
X12824048Y-15555190D01*
X12843095Y-15545667D01*
X12890714Y-15545667D01*
X12909762Y-15555190D01*
X12919286Y-15564714D01*
X12928809Y-15583762D01*
X12928809Y-15631381D01*
X12919286Y-15650428D01*
X12909762Y-15659952D01*
X12890714Y-15669476D01*
X12843095Y-15669476D01*
X12824048Y-15659952D01*
X12814524Y-15650428D01*
X13119286Y-15669476D02*
X13005000Y-15669476D01*
X13062143Y-15669476D02*
X13062143Y-15469476D01*
X13043095Y-15498048D01*
X13024048Y-15517095D01*
X13005000Y-15526619D01*
X13195476Y-15469476D02*
X13195476Y-15507571D01*
X13271667Y-15469476D02*
X13271667Y-15507571D01*
X13566905Y-15745667D02*
X13557381Y-15736143D01*
X13538333Y-15707571D01*
X13528809Y-15688524D01*
X13519286Y-15659952D01*
X13509762Y-15612333D01*
X13509762Y-15574238D01*
X13519286Y-15526619D01*
X13528809Y-15498048D01*
X13538333Y-15479000D01*
X13557381Y-15450428D01*
X13566905Y-15440905D01*
X13624048Y-15469476D02*
X13747857Y-15469476D01*
X13681190Y-15545667D01*
X13709762Y-15545667D01*
X13728809Y-15555190D01*
X13738333Y-15564714D01*
X13747857Y-15583762D01*
X13747857Y-15631381D01*
X13738333Y-15650428D01*
X13728809Y-15659952D01*
X13709762Y-15669476D01*
X13652619Y-15669476D01*
X13633571Y-15659952D01*
X13624048Y-15650428D01*
X13985952Y-15669476D02*
X13985952Y-15469476D01*
X14071667Y-15669476D02*
X14071667Y-15564714D01*
X14062143Y-15545667D01*
X14043095Y-15536143D01*
X14014524Y-15536143D01*
X13995476Y-15545667D01*
X13985952Y-15555190D01*
X14195476Y-15669476D02*
X14176428Y-15659952D01*
X14166905Y-15650428D01*
X14157381Y-15631381D01*
X14157381Y-15574238D01*
X14166905Y-15555190D01*
X14176428Y-15545667D01*
X14195476Y-15536143D01*
X14224048Y-15536143D01*
X14243095Y-15545667D01*
X14252619Y-15555190D01*
X14262143Y-15574238D01*
X14262143Y-15631381D01*
X14252619Y-15650428D01*
X14243095Y-15659952D01*
X14224048Y-15669476D01*
X14195476Y-15669476D01*
X14376428Y-15669476D02*
X14357381Y-15659952D01*
X14347857Y-15640905D01*
X14347857Y-15469476D01*
X14528809Y-15659952D02*
X14509762Y-15669476D01*
X14471667Y-15669476D01*
X14452619Y-15659952D01*
X14443095Y-15640905D01*
X14443095Y-15564714D01*
X14452619Y-15545667D01*
X14471667Y-15536143D01*
X14509762Y-15536143D01*
X14528809Y-15545667D01*
X14538333Y-15564714D01*
X14538333Y-15583762D01*
X14443095Y-15602809D01*
X14614524Y-15659952D02*
X14633571Y-15669476D01*
X14671667Y-15669476D01*
X14690714Y-15659952D01*
X14700238Y-15640905D01*
X14700238Y-15631381D01*
X14690714Y-15612333D01*
X14671667Y-15602809D01*
X14643095Y-15602809D01*
X14624048Y-15593286D01*
X14614524Y-15574238D01*
X14614524Y-15564714D01*
X14624048Y-15545667D01*
X14643095Y-15536143D01*
X14671667Y-15536143D01*
X14690714Y-15545667D01*
X14766905Y-15745667D02*
X14776428Y-15736143D01*
X14795476Y-15707571D01*
X14805000Y-15688524D01*
X14814524Y-15659952D01*
X14824048Y-15612333D01*
X14824048Y-15574238D01*
X14814524Y-15526619D01*
X14805000Y-15498048D01*
X14795476Y-15479000D01*
X14776428Y-15450428D01*
X14766905Y-15440905D01*
M02*
