G04 #@! TF.GenerationSoftware,KiCad,Pcbnew,(6.0.4-0)*
G04 #@! TF.CreationDate,2022-04-04T15:41:03+02:00*
G04 #@! TF.ProjectId,EnergyMonitor,456e6572-6779-44d6-9f6e-69746f722e6b,rev?*
G04 #@! TF.SameCoordinates,Original*
G04 #@! TF.FileFunction,Soldermask,Top*
G04 #@! TF.FilePolarity,Negative*
%FSLAX46Y46*%
G04 Gerber Fmt 4.6, Leading zero omitted, Abs format (unit mm)*
G04 Created by KiCad (PCBNEW (6.0.4-0)) date 2022-04-04 15:41:03*
%MOMM*%
%LPD*%
G01*
G04 APERTURE LIST*
G04 Aperture macros list*
%AMRoundRect*
0 Rectangle with rounded corners*
0 $1 Rounding radius*
0 $2 $3 $4 $5 $6 $7 $8 $9 X,Y pos of 4 corners*
0 Add a 4 corners polygon primitive as box body*
4,1,4,$2,$3,$4,$5,$6,$7,$8,$9,$2,$3,0*
0 Add four circle primitives for the rounded corners*
1,1,$1+$1,$2,$3*
1,1,$1+$1,$4,$5*
1,1,$1+$1,$6,$7*
1,1,$1+$1,$8,$9*
0 Add four rect primitives between the rounded corners*
20,1,$1+$1,$2,$3,$4,$5,0*
20,1,$1+$1,$4,$5,$6,$7,0*
20,1,$1+$1,$6,$7,$8,$9,0*
20,1,$1+$1,$8,$9,$2,$3,0*%
%AMOutline5P*
0 Free polygon, 5 corners , with rotation*
0 The origin of the aperture is its center*
0 number of corners: always 5*
0 $1 to $10 corner X, Y*
0 $11 Rotation angle, in degrees counterclockwise*
0 create outline with 5 corners*
4,1,5,$1,$2,$3,$4,$5,$6,$7,$8,$9,$10,$1,$2,$11*%
%AMOutline6P*
0 Free polygon, 6 corners , with rotation*
0 The origin of the aperture is its center*
0 number of corners: always 6*
0 $1 to $12 corner X, Y*
0 $13 Rotation angle, in degrees counterclockwise*
0 create outline with 6 corners*
4,1,6,$1,$2,$3,$4,$5,$6,$7,$8,$9,$10,$11,$12,$1,$2,$13*%
%AMOutline7P*
0 Free polygon, 7 corners , with rotation*
0 The origin of the aperture is its center*
0 number of corners: always 7*
0 $1 to $14 corner X, Y*
0 $15 Rotation angle, in degrees counterclockwise*
0 create outline with 7 corners*
4,1,7,$1,$2,$3,$4,$5,$6,$7,$8,$9,$10,$11,$12,$13,$14,$1,$2,$15*%
%AMOutline8P*
0 Free polygon, 8 corners , with rotation*
0 The origin of the aperture is its center*
0 number of corners: always 8*
0 $1 to $16 corner X, Y*
0 $17 Rotation angle, in degrees counterclockwise*
0 create outline with 8 corners*
4,1,8,$1,$2,$3,$4,$5,$6,$7,$8,$9,$10,$11,$12,$13,$14,$15,$16,$1,$2,$17*%
%AMFreePoly0*
4,1,22,0.500000,-0.750000,0.000000,-0.750000,0.000000,-0.745033,-0.079941,-0.743568,-0.215256,-0.701293,-0.333266,-0.622738,-0.424486,-0.514219,-0.481581,-0.384460,-0.499164,-0.250000,-0.500000,-0.250000,-0.500000,0.250000,-0.499164,0.250000,-0.499963,0.256109,-0.478152,0.396186,-0.417904,0.524511,-0.324060,0.630769,-0.204165,0.706417,-0.067858,0.745374,0.000000,0.744959,0.000000,0.750000,
0.500000,0.750000,0.500000,-0.750000,0.500000,-0.750000,$1*%
%AMFreePoly1*
4,1,20,0.000000,0.744959,0.073905,0.744508,0.209726,0.703889,0.328688,0.626782,0.421226,0.519385,0.479903,0.390333,0.500000,0.250000,0.500000,-0.250000,0.499851,-0.262216,0.476331,-0.402017,0.414519,-0.529596,0.319384,-0.634700,0.198574,-0.708877,0.061801,-0.746166,0.000000,-0.745033,0.000000,-0.750000,-0.500000,-0.750000,-0.500000,0.750000,0.000000,0.750000,0.000000,0.744959,
0.000000,0.744959,$1*%
%AMFreePoly2*
4,1,22,0.550000,-0.750000,0.000000,-0.750000,0.000000,-0.745033,-0.079941,-0.743568,-0.215256,-0.701293,-0.333266,-0.622738,-0.424486,-0.514219,-0.481581,-0.384460,-0.499164,-0.250000,-0.500000,-0.250000,-0.500000,0.250000,-0.499164,0.250000,-0.499963,0.256109,-0.478152,0.396186,-0.417904,0.524511,-0.324060,0.630769,-0.204165,0.706417,-0.067858,0.745374,0.000000,0.744959,0.000000,0.750000,
0.550000,0.750000,0.550000,-0.750000,0.550000,-0.750000,$1*%
%AMFreePoly3*
4,1,20,0.000000,0.744959,0.073905,0.744508,0.209726,0.703889,0.328688,0.626782,0.421226,0.519385,0.479903,0.390333,0.500000,0.250000,0.500000,-0.250000,0.499851,-0.262216,0.476331,-0.402017,0.414519,-0.529596,0.319384,-0.634700,0.198574,-0.708877,0.061801,-0.746166,0.000000,-0.745033,0.000000,-0.750000,-0.550000,-0.750000,-0.550000,0.750000,0.000000,0.750000,0.000000,0.744959,
0.000000,0.744959,$1*%
G04 Aperture macros list end*
%ADD10RoundRect,0.150000X-0.825000X-0.150000X0.825000X-0.150000X0.825000X0.150000X-0.825000X0.150000X0*%
%ADD11RoundRect,0.237500X-0.237500X0.250000X-0.237500X-0.250000X0.237500X-0.250000X0.237500X0.250000X0*%
%ADD12C,2.700000*%
%ADD13RoundRect,0.237500X0.237500X-0.250000X0.237500X0.250000X-0.237500X0.250000X-0.237500X-0.250000X0*%
%ADD14RoundRect,0.250000X-0.400000X-0.625000X0.400000X-0.625000X0.400000X0.625000X-0.400000X0.625000X0*%
%ADD15RoundRect,0.237500X0.237500X-0.300000X0.237500X0.300000X-0.237500X0.300000X-0.237500X-0.300000X0*%
%ADD16RoundRect,0.237500X-0.250000X-0.237500X0.250000X-0.237500X0.250000X0.237500X-0.250000X0.237500X0*%
%ADD17RoundRect,0.250000X0.400000X0.625000X-0.400000X0.625000X-0.400000X-0.625000X0.400000X-0.625000X0*%
%ADD18C,2.000000*%
%ADD19C,1.200000*%
%ADD20RoundRect,0.250000X-0.725000X0.600000X-0.725000X-0.600000X0.725000X-0.600000X0.725000X0.600000X0*%
%ADD21O,1.950000X1.700000*%
%ADD22RoundRect,0.150000X0.150000X-0.587500X0.150000X0.587500X-0.150000X0.587500X-0.150000X-0.587500X0*%
%ADD23C,1.800000*%
%ADD24RoundRect,0.250000X0.625000X-0.400000X0.625000X0.400000X-0.625000X0.400000X-0.625000X-0.400000X0*%
%ADD25C,2.600000*%
%ADD26R,2.600000X2.600000*%
%ADD27RoundRect,0.250000X0.550000X-1.250000X0.550000X1.250000X-0.550000X1.250000X-0.550000X-1.250000X0*%
%ADD28RoundRect,0.150000X-0.150000X0.512500X-0.150000X-0.512500X0.150000X-0.512500X0.150000X0.512500X0*%
%ADD29RoundRect,0.250000X-0.537500X-0.425000X0.537500X-0.425000X0.537500X0.425000X-0.537500X0.425000X0*%
%ADD30FreePoly0,90.000000*%
%ADD31FreePoly1,90.000000*%
%ADD32C,3.000000*%
%ADD33R,3.300000X1.700000*%
%ADD34FreePoly2,0.000000*%
%ADD35R,1.000000X1.500000*%
%ADD36FreePoly3,0.000000*%
%ADD37C,6.200000*%
%ADD38R,1.700000X1.700000*%
%ADD39O,1.700000X1.700000*%
%ADD40R,2.300000X2.000000*%
%ADD41C,2.300000*%
%ADD42RoundRect,0.250000X0.425000X-0.537500X0.425000X0.537500X-0.425000X0.537500X-0.425000X-0.537500X0*%
%ADD43RoundRect,0.250000X-0.625000X0.400000X-0.625000X-0.400000X0.625000X-0.400000X0.625000X0.400000X0*%
%ADD44RoundRect,0.250000X-0.550000X1.250000X-0.550000X-1.250000X0.550000X-1.250000X0.550000X1.250000X0*%
%ADD45Outline5P,-1.500000X1.500000X1.500000X1.500000X1.500000X-1.500000X-0.900000X-1.500000X-1.500000X-0.900000X90.000000*%
%ADD46Outline5P,-1.500000X0.900000X-0.900000X1.500000X1.500000X1.500000X1.500000X-1.500000X-1.500000X-1.500000X90.000000*%
%ADD47O,2.000000X3.000000*%
G04 APERTURE END LIST*
D10*
X146515000Y-73330000D03*
X146515000Y-74600000D03*
X146515000Y-75870000D03*
X146515000Y-77140000D03*
X146515000Y-78410000D03*
X146515000Y-79680000D03*
X146515000Y-80950000D03*
X151465000Y-80950000D03*
X151465000Y-79680000D03*
X151465000Y-78410000D03*
X151465000Y-77140000D03*
X151465000Y-75870000D03*
X151465000Y-74600000D03*
X151465000Y-73330000D03*
D11*
X157480000Y-67667500D03*
X157480000Y-69492500D03*
D12*
X190250000Y-66350000D03*
D13*
X157480000Y-65682500D03*
X157480000Y-63857500D03*
D14*
X169392000Y-81445000D03*
X172492000Y-81445000D03*
D12*
X190250000Y-115650000D03*
D15*
X154210000Y-80542500D03*
X154210000Y-78817500D03*
D16*
X126087500Y-74930000D03*
X127912500Y-74930000D03*
D13*
X149860000Y-65682500D03*
X149860000Y-63857500D03*
D11*
X152400000Y-67667500D03*
X152400000Y-69492500D03*
D17*
X177826000Y-81445000D03*
X174726000Y-81445000D03*
D18*
X103815000Y-99885000D03*
X110815000Y-99885000D03*
X110815000Y-91885000D03*
X103815000Y-91885000D03*
D19*
X109760000Y-72695000D03*
D20*
X111760000Y-74295000D03*
D21*
X111760000Y-76795000D03*
X111760000Y-79295000D03*
X111760000Y-81795000D03*
D13*
X147320000Y-65682500D03*
X147320000Y-63857500D03*
D12*
X109500000Y-115650000D03*
D16*
X126087500Y-82550000D03*
X127912500Y-82550000D03*
D22*
X134686000Y-79677500D03*
X136586000Y-79677500D03*
X135636000Y-77802500D03*
D23*
X104200000Y-108020000D03*
X111700000Y-110420000D03*
D24*
X172720000Y-77115000D03*
X172720000Y-74015000D03*
D11*
X149860000Y-67667500D03*
X149860000Y-69492500D03*
D25*
X153860000Y-127600000D03*
X146360000Y-127600000D03*
D26*
X138860000Y-127600000D03*
D13*
X152400000Y-65682500D03*
X152400000Y-63857500D03*
D25*
X108860000Y-53900000D03*
X113860000Y-53900000D03*
X118860000Y-53900000D03*
X123860000Y-53900000D03*
X128860000Y-53900000D03*
X133860000Y-53900000D03*
X138860000Y-53900000D03*
X143860000Y-53900000D03*
X148860000Y-53900000D03*
X153860000Y-53900000D03*
X158860000Y-53900000D03*
D26*
X163860000Y-53900000D03*
D27*
X120650000Y-83480000D03*
X120650000Y-79080000D03*
D28*
X132649000Y-63505500D03*
X131699000Y-63505500D03*
X130749000Y-63505500D03*
X130749000Y-65780500D03*
X131699000Y-65780500D03*
X132649000Y-65780500D03*
D11*
X147320000Y-67667500D03*
X147320000Y-69492500D03*
D13*
X154940000Y-65682500D03*
X154940000Y-63857500D03*
D11*
X154940000Y-67667500D03*
X154940000Y-69492500D03*
D29*
X157312500Y-83185000D03*
X160187500Y-83185000D03*
D30*
X130175000Y-79390000D03*
D31*
X130175000Y-78090000D03*
D12*
X118290000Y-128270000D03*
D32*
X129540000Y-128270000D03*
X107040000Y-128270000D03*
D22*
X126050000Y-79677500D03*
X127950000Y-79677500D03*
X127000000Y-77802500D03*
D13*
X160020000Y-65682500D03*
X160020000Y-63857500D03*
D12*
X109500000Y-66350000D03*
D11*
X162560000Y-67667500D03*
X162560000Y-69492500D03*
D33*
X175470000Y-71120000D03*
X169970000Y-71120000D03*
D10*
X156675000Y-73330000D03*
X156675000Y-74600000D03*
X156675000Y-75870000D03*
X156675000Y-77140000D03*
X156675000Y-78410000D03*
X156675000Y-79680000D03*
X156675000Y-80950000D03*
X161625000Y-80950000D03*
X161625000Y-79680000D03*
X161625000Y-78410000D03*
X161625000Y-77140000D03*
X161625000Y-75870000D03*
X161625000Y-74600000D03*
X161625000Y-73330000D03*
D28*
X169950000Y-59060500D03*
X169000000Y-59060500D03*
X168050000Y-59060500D03*
X168050000Y-61335500D03*
X169000000Y-61335500D03*
X169950000Y-61335500D03*
D34*
X139670000Y-83185000D03*
D35*
X140970000Y-83185000D03*
D36*
X142270000Y-83185000D03*
D30*
X166624000Y-83454000D03*
D31*
X166624000Y-82154000D03*
D30*
X138811000Y-79390000D03*
D31*
X138811000Y-78090000D03*
D15*
X143910000Y-80542500D03*
X143910000Y-78817500D03*
D29*
X147152500Y-83185000D03*
X150027500Y-83185000D03*
D37*
X121000000Y-65900000D03*
X179000000Y-88900000D03*
X179000000Y-65900000D03*
X121000000Y-88900000D03*
D38*
X125870000Y-87630000D03*
D39*
X125870000Y-90170000D03*
X128410000Y-87630000D03*
X128410000Y-90170000D03*
X130950000Y-87630000D03*
X130950000Y-90170000D03*
X133490000Y-87630000D03*
X133490000Y-90170000D03*
X136030000Y-87630000D03*
X136030000Y-90170000D03*
X138570000Y-87630000D03*
X138570000Y-90170000D03*
X141110000Y-87630000D03*
X141110000Y-90170000D03*
X143650000Y-87630000D03*
X143650000Y-90170000D03*
X146190000Y-87630000D03*
X146190000Y-90170000D03*
X148730000Y-87630000D03*
X148730000Y-90170000D03*
X151270000Y-87630000D03*
X151270000Y-90170000D03*
X153810000Y-87630000D03*
X153810000Y-90170000D03*
X156350000Y-87630000D03*
X156350000Y-90170000D03*
X158890000Y-87630000D03*
X158890000Y-90170000D03*
X161430000Y-87630000D03*
X161430000Y-90170000D03*
X163970000Y-87630000D03*
X163970000Y-90170000D03*
X166510000Y-87630000D03*
X166510000Y-90170000D03*
X169050000Y-87630000D03*
X169050000Y-90170000D03*
X171590000Y-87630000D03*
X171590000Y-90170000D03*
X174130000Y-87630000D03*
X174130000Y-90170000D03*
D40*
X119380000Y-100965000D03*
D41*
X119380000Y-105965000D03*
X148780000Y-95765000D03*
X148780000Y-111165000D03*
D42*
X169545000Y-77002500D03*
X169545000Y-74127500D03*
D11*
X165100000Y-67667500D03*
X165100000Y-69492500D03*
D43*
X175895000Y-74015000D03*
X175895000Y-77115000D03*
D16*
X134723500Y-82550000D03*
X136548500Y-82550000D03*
D44*
X120650000Y-70698000D03*
X120650000Y-75098000D03*
D16*
X134723500Y-74930000D03*
X136548500Y-74930000D03*
D13*
X162560000Y-65682500D03*
X162560000Y-63857500D03*
D18*
X128190000Y-118745000D03*
X118190000Y-118745000D03*
D11*
X160020000Y-67667500D03*
X160020000Y-69492500D03*
D45*
X180942000Y-117500000D03*
D46*
X160942000Y-117500000D03*
D47*
X165942000Y-97500000D03*
X175942000Y-97500000D03*
D13*
X165100000Y-65682500D03*
X165100000Y-63857500D03*
M02*
