%FSLAX45Y45*%
G04 Gerber Fmt 4.5, Leading zero omitted, Abs format (unit mm)*
G04 Created by KiCad (PCBNEW (6.0.4-0)) date 2022-04-04 15:41:06*
%MOMM*%
%LPD*%
G01*
G04 APERTURE LIST*
%TA.AperFunction,Profile*%
%ADD10C,0.100000*%
%TD*%
%ADD11C,0.200000*%
%ADD12C,0.120000*%
%ADD13C,0.270000*%
%ADD14C,0.275000*%
G04 APERTURE END LIST*
D10*
X10300000Y-4850000D02*
G75*
G03*
X10000000Y-5150000I0J-300000D01*
G01*
X20000000Y-5150000D02*
G75*
G03*
X19700000Y-4850000I-300000J0D01*
G01*
X10300000Y-4850000D02*
X19700000Y-4850000D01*
X10000000Y-13050000D02*
G75*
G03*
X10300000Y-13350000I300000J0D01*
G01*
X20000000Y-5150000D02*
X20000000Y-13050000D01*
X19700000Y-13350000D02*
G75*
G03*
X20000000Y-13050000I0J300000D01*
G01*
X19700000Y-13350000D02*
X10300000Y-13350000D01*
X10000000Y-13050000D02*
X10000000Y-5150000D01*
D11*
D12*
X10916000Y-7209500D02*
X11036000Y-7329500D01*
X11036000Y-7209500D02*
X10916000Y-7329500D01*
D13*
X11085000Y-6635000D02*
G75*
G03*
X11085000Y-6635000I-135000J0D01*
G01*
X11085000Y-11565000D02*
G75*
G03*
X11085000Y-11565000I-135000J0D01*
G01*
X11964000Y-12827000D02*
G75*
G03*
X11964000Y-12827000I-135000J0D01*
G01*
X19160000Y-6635000D02*
G75*
G03*
X19160000Y-6635000I-135000J0D01*
G01*
X19160000Y-11565000D02*
G75*
G03*
X19160000Y-11565000I-135000J0D01*
G01*
D14*
X12100000Y-6452500D02*
X12100000Y-6727500D01*
X11962500Y-6590000D02*
X12237500Y-6590000D01*
X12100000Y-8752500D02*
X12100000Y-9027500D01*
X11962500Y-8890000D02*
X12237500Y-8890000D01*
X17900000Y-6452500D02*
X17900000Y-6727500D01*
X17762500Y-6590000D02*
X18037500Y-6590000D01*
X17900000Y-8752500D02*
X17900000Y-9027500D01*
X17762500Y-8890000D02*
X18037500Y-8890000D01*
D11*
X10252619Y-13665476D02*
X10252619Y-13465476D01*
X10300238Y-13465476D01*
X10328810Y-13475000D01*
X10347857Y-13494048D01*
X10357381Y-13513095D01*
X10366905Y-13551190D01*
X10366905Y-13579762D01*
X10357381Y-13617857D01*
X10347857Y-13636905D01*
X10328810Y-13655952D01*
X10300238Y-13665476D01*
X10252619Y-13665476D01*
X10452619Y-13665476D02*
X10452619Y-13532143D01*
X10452619Y-13570238D02*
X10462143Y-13551190D01*
X10471667Y-13541667D01*
X10490714Y-13532143D01*
X10509762Y-13532143D01*
X10576429Y-13665476D02*
X10576429Y-13532143D01*
X10576429Y-13465476D02*
X10566905Y-13475000D01*
X10576429Y-13484524D01*
X10585952Y-13475000D01*
X10576429Y-13465476D01*
X10576429Y-13484524D01*
X10700238Y-13665476D02*
X10681190Y-13655952D01*
X10671667Y-13636905D01*
X10671667Y-13465476D01*
X10805000Y-13665476D02*
X10785952Y-13655952D01*
X10776429Y-13636905D01*
X10776429Y-13465476D01*
X11033571Y-13665476D02*
X11033571Y-13465476D01*
X11100238Y-13608333D01*
X11166905Y-13465476D01*
X11166905Y-13665476D01*
X11347857Y-13665476D02*
X11347857Y-13560714D01*
X11338333Y-13541667D01*
X11319286Y-13532143D01*
X11281190Y-13532143D01*
X11262143Y-13541667D01*
X11347857Y-13655952D02*
X11328809Y-13665476D01*
X11281190Y-13665476D01*
X11262143Y-13655952D01*
X11252619Y-13636905D01*
X11252619Y-13617857D01*
X11262143Y-13598809D01*
X11281190Y-13589286D01*
X11328809Y-13589286D01*
X11347857Y-13579762D01*
X11443095Y-13532143D02*
X11443095Y-13732143D01*
X11443095Y-13541667D02*
X11462143Y-13532143D01*
X11500238Y-13532143D01*
X11519286Y-13541667D01*
X11528809Y-13551190D01*
X11538333Y-13570238D01*
X11538333Y-13627381D01*
X11528809Y-13646428D01*
X11519286Y-13655952D01*
X11500238Y-13665476D01*
X11462143Y-13665476D01*
X11443095Y-13655952D01*
X11624048Y-13646428D02*
X11633571Y-13655952D01*
X11624048Y-13665476D01*
X11614524Y-13655952D01*
X11624048Y-13646428D01*
X11624048Y-13665476D01*
X11624048Y-13541667D02*
X11633571Y-13551190D01*
X11624048Y-13560714D01*
X11614524Y-13551190D01*
X11624048Y-13541667D01*
X11624048Y-13560714D01*
D12*
X9875000Y-13935000D02*
X9995000Y-14055000D01*
X9995000Y-13935000D02*
X9875000Y-14055000D01*
D11*
X10357381Y-14085476D02*
X10243095Y-14085476D01*
X10300238Y-14085476D02*
X10300238Y-13885476D01*
X10281190Y-13914048D01*
X10262143Y-13933095D01*
X10243095Y-13942619D01*
X10443095Y-14066428D02*
X10452619Y-14075952D01*
X10443095Y-14085476D01*
X10433571Y-14075952D01*
X10443095Y-14066428D01*
X10443095Y-14085476D01*
X10528810Y-13904524D02*
X10538333Y-13895000D01*
X10557381Y-13885476D01*
X10605000Y-13885476D01*
X10624048Y-13895000D01*
X10633571Y-13904524D01*
X10643095Y-13923571D01*
X10643095Y-13942619D01*
X10633571Y-13971190D01*
X10519286Y-14085476D01*
X10643095Y-14085476D01*
X10766905Y-13885476D02*
X10785952Y-13885476D01*
X10805000Y-13895000D01*
X10814524Y-13904524D01*
X10824048Y-13923571D01*
X10833571Y-13961667D01*
X10833571Y-14009286D01*
X10824048Y-14047381D01*
X10814524Y-14066428D01*
X10805000Y-14075952D01*
X10785952Y-14085476D01*
X10766905Y-14085476D01*
X10747857Y-14075952D01*
X10738333Y-14066428D01*
X10728810Y-14047381D01*
X10719286Y-14009286D01*
X10719286Y-13961667D01*
X10728810Y-13923571D01*
X10738333Y-13904524D01*
X10747857Y-13895000D01*
X10766905Y-13885476D01*
X10957381Y-13885476D02*
X10976429Y-13885476D01*
X10995476Y-13895000D01*
X11005000Y-13904524D01*
X11014524Y-13923571D01*
X11024048Y-13961667D01*
X11024048Y-14009286D01*
X11014524Y-14047381D01*
X11005000Y-14066428D01*
X10995476Y-14075952D01*
X10976429Y-14085476D01*
X10957381Y-14085476D01*
X10938333Y-14075952D01*
X10928810Y-14066428D01*
X10919286Y-14047381D01*
X10909762Y-14009286D01*
X10909762Y-13961667D01*
X10919286Y-13923571D01*
X10928810Y-13904524D01*
X10938333Y-13895000D01*
X10957381Y-13885476D01*
X11109762Y-14085476D02*
X11109762Y-13952143D01*
X11109762Y-13971190D02*
X11119286Y-13961667D01*
X11138333Y-13952143D01*
X11166905Y-13952143D01*
X11185952Y-13961667D01*
X11195476Y-13980714D01*
X11195476Y-14085476D01*
X11195476Y-13980714D02*
X11205000Y-13961667D01*
X11224048Y-13952143D01*
X11252619Y-13952143D01*
X11271667Y-13961667D01*
X11281190Y-13980714D01*
X11281190Y-14085476D01*
X11376428Y-14085476D02*
X11376428Y-13952143D01*
X11376428Y-13971190D02*
X11385952Y-13961667D01*
X11405000Y-13952143D01*
X11433571Y-13952143D01*
X11452619Y-13961667D01*
X11462143Y-13980714D01*
X11462143Y-14085476D01*
X11462143Y-13980714D02*
X11471667Y-13961667D01*
X11490714Y-13952143D01*
X11519286Y-13952143D01*
X11538333Y-13961667D01*
X11547857Y-13980714D01*
X11547857Y-14085476D01*
X11938333Y-13875952D02*
X11766905Y-14133095D01*
X12195476Y-13885476D02*
X12214524Y-13885476D01*
X12233571Y-13895000D01*
X12243095Y-13904524D01*
X12252619Y-13923571D01*
X12262143Y-13961667D01*
X12262143Y-14009286D01*
X12252619Y-14047381D01*
X12243095Y-14066428D01*
X12233571Y-14075952D01*
X12214524Y-14085476D01*
X12195476Y-14085476D01*
X12176428Y-14075952D01*
X12166905Y-14066428D01*
X12157381Y-14047381D01*
X12147857Y-14009286D01*
X12147857Y-13961667D01*
X12157381Y-13923571D01*
X12166905Y-13904524D01*
X12176428Y-13895000D01*
X12195476Y-13885476D01*
X12347857Y-14066428D02*
X12357381Y-14075952D01*
X12347857Y-14085476D01*
X12338333Y-14075952D01*
X12347857Y-14066428D01*
X12347857Y-14085476D01*
X12481190Y-13885476D02*
X12500238Y-13885476D01*
X12519286Y-13895000D01*
X12528809Y-13904524D01*
X12538333Y-13923571D01*
X12547857Y-13961667D01*
X12547857Y-14009286D01*
X12538333Y-14047381D01*
X12528809Y-14066428D01*
X12519286Y-14075952D01*
X12500238Y-14085476D01*
X12481190Y-14085476D01*
X12462143Y-14075952D01*
X12452619Y-14066428D01*
X12443095Y-14047381D01*
X12433571Y-14009286D01*
X12433571Y-13961667D01*
X12443095Y-13923571D01*
X12452619Y-13904524D01*
X12462143Y-13895000D01*
X12481190Y-13885476D01*
X12719286Y-13952143D02*
X12719286Y-14085476D01*
X12671667Y-13875952D02*
X12624048Y-14018809D01*
X12747857Y-14018809D01*
X12805000Y-13885476D02*
X12938333Y-13885476D01*
X12852619Y-14085476D01*
X13005000Y-13904524D02*
X13014524Y-13895000D01*
X13033571Y-13885476D01*
X13081190Y-13885476D01*
X13100238Y-13895000D01*
X13109762Y-13904524D01*
X13119286Y-13923571D01*
X13119286Y-13942619D01*
X13109762Y-13971190D01*
X12995476Y-14085476D01*
X13119286Y-14085476D01*
X13195476Y-13885476D02*
X13195476Y-13923571D01*
X13271667Y-13885476D02*
X13271667Y-13923571D01*
X13566905Y-14161667D02*
X13557381Y-14152143D01*
X13538333Y-14123571D01*
X13528809Y-14104524D01*
X13519286Y-14075952D01*
X13509762Y-14028333D01*
X13509762Y-13990238D01*
X13519286Y-13942619D01*
X13528809Y-13914048D01*
X13538333Y-13895000D01*
X13557381Y-13866428D01*
X13566905Y-13856905D01*
X13747857Y-14085476D02*
X13633571Y-14085476D01*
X13690714Y-14085476D02*
X13690714Y-13885476D01*
X13671667Y-13914048D01*
X13652619Y-13933095D01*
X13633571Y-13942619D01*
X13985952Y-14085476D02*
X13985952Y-13885476D01*
X14071667Y-14085476D02*
X14071667Y-13980714D01*
X14062143Y-13961667D01*
X14043095Y-13952143D01*
X14014524Y-13952143D01*
X13995476Y-13961667D01*
X13985952Y-13971190D01*
X14195476Y-14085476D02*
X14176428Y-14075952D01*
X14166905Y-14066428D01*
X14157381Y-14047381D01*
X14157381Y-13990238D01*
X14166905Y-13971190D01*
X14176428Y-13961667D01*
X14195476Y-13952143D01*
X14224048Y-13952143D01*
X14243095Y-13961667D01*
X14252619Y-13971190D01*
X14262143Y-13990238D01*
X14262143Y-14047381D01*
X14252619Y-14066428D01*
X14243095Y-14075952D01*
X14224048Y-14085476D01*
X14195476Y-14085476D01*
X14376428Y-14085476D02*
X14357381Y-14075952D01*
X14347857Y-14056905D01*
X14347857Y-13885476D01*
X14528809Y-14075952D02*
X14509762Y-14085476D01*
X14471667Y-14085476D01*
X14452619Y-14075952D01*
X14443095Y-14056905D01*
X14443095Y-13980714D01*
X14452619Y-13961667D01*
X14471667Y-13952143D01*
X14509762Y-13952143D01*
X14528809Y-13961667D01*
X14538333Y-13980714D01*
X14538333Y-13999762D01*
X14443095Y-14018809D01*
X14605000Y-14161667D02*
X14614524Y-14152143D01*
X14633571Y-14123571D01*
X14643095Y-14104524D01*
X14652619Y-14075952D01*
X14662143Y-14028333D01*
X14662143Y-13990238D01*
X14652619Y-13942619D01*
X14643095Y-13914048D01*
X14633571Y-13895000D01*
X14614524Y-13866428D01*
X14605000Y-13856905D01*
X14966905Y-14161667D02*
X14957381Y-14152143D01*
X14938333Y-14123571D01*
X14928809Y-14104524D01*
X14919286Y-14075952D01*
X14909762Y-14028333D01*
X14909762Y-13990238D01*
X14919286Y-13942619D01*
X14928809Y-13914048D01*
X14938333Y-13895000D01*
X14957381Y-13866428D01*
X14966905Y-13856905D01*
X15043095Y-13952143D02*
X15043095Y-14085476D01*
X15043095Y-13971190D02*
X15052619Y-13961667D01*
X15071667Y-13952143D01*
X15100238Y-13952143D01*
X15119286Y-13961667D01*
X15128809Y-13980714D01*
X15128809Y-14085476D01*
X15252619Y-14085476D02*
X15233571Y-14075952D01*
X15224048Y-14066428D01*
X15214524Y-14047381D01*
X15214524Y-13990238D01*
X15224048Y-13971190D01*
X15233571Y-13961667D01*
X15252619Y-13952143D01*
X15281190Y-13952143D01*
X15300238Y-13961667D01*
X15309762Y-13971190D01*
X15319286Y-13990238D01*
X15319286Y-14047381D01*
X15309762Y-14066428D01*
X15300238Y-14075952D01*
X15281190Y-14085476D01*
X15252619Y-14085476D01*
X15376428Y-13952143D02*
X15452619Y-13952143D01*
X15405000Y-13885476D02*
X15405000Y-14056905D01*
X15414524Y-14075952D01*
X15433571Y-14085476D01*
X15452619Y-14085476D01*
X15671667Y-13952143D02*
X15671667Y-14152143D01*
X15671667Y-13961667D02*
X15690714Y-13952143D01*
X15728809Y-13952143D01*
X15747857Y-13961667D01*
X15757381Y-13971190D01*
X15766905Y-13990238D01*
X15766905Y-14047381D01*
X15757381Y-14066428D01*
X15747857Y-14075952D01*
X15728809Y-14085476D01*
X15690714Y-14085476D01*
X15671667Y-14075952D01*
X15881190Y-14085476D02*
X15862143Y-14075952D01*
X15852619Y-14056905D01*
X15852619Y-13885476D01*
X16043095Y-14085476D02*
X16043095Y-13980714D01*
X16033571Y-13961667D01*
X16014524Y-13952143D01*
X15976428Y-13952143D01*
X15957381Y-13961667D01*
X16043095Y-14075952D02*
X16024048Y-14085476D01*
X15976428Y-14085476D01*
X15957381Y-14075952D01*
X15947857Y-14056905D01*
X15947857Y-14037857D01*
X15957381Y-14018809D01*
X15976428Y-14009286D01*
X16024048Y-14009286D01*
X16043095Y-13999762D01*
X16109762Y-13952143D02*
X16185952Y-13952143D01*
X16138333Y-13885476D02*
X16138333Y-14056905D01*
X16147857Y-14075952D01*
X16166905Y-14085476D01*
X16185952Y-14085476D01*
X16328809Y-14075952D02*
X16309762Y-14085476D01*
X16271667Y-14085476D01*
X16252619Y-14075952D01*
X16243095Y-14056905D01*
X16243095Y-13980714D01*
X16252619Y-13961667D01*
X16271667Y-13952143D01*
X16309762Y-13952143D01*
X16328809Y-13961667D01*
X16338333Y-13980714D01*
X16338333Y-13999762D01*
X16243095Y-14018809D01*
X16509762Y-14085476D02*
X16509762Y-13885476D01*
X16509762Y-14075952D02*
X16490714Y-14085476D01*
X16452619Y-14085476D01*
X16433571Y-14075952D01*
X16424048Y-14066428D01*
X16414524Y-14047381D01*
X16414524Y-13990238D01*
X16424048Y-13971190D01*
X16433571Y-13961667D01*
X16452619Y-13952143D01*
X16490714Y-13952143D01*
X16509762Y-13961667D01*
X16585952Y-14161667D02*
X16595476Y-14152143D01*
X16614524Y-14123571D01*
X16624048Y-14104524D01*
X16633571Y-14075952D01*
X16643095Y-14028333D01*
X16643095Y-13990238D01*
X16633571Y-13942619D01*
X16624048Y-13914048D01*
X16614524Y-13895000D01*
X16595476Y-13866428D01*
X16585952Y-13856905D01*
X9995000Y-14259000D02*
G75*
G03*
X9995000Y-14259000I-100000J0D01*
G01*
X10243095Y-14168524D02*
X10252619Y-14159000D01*
X10271667Y-14149476D01*
X10319286Y-14149476D01*
X10338333Y-14159000D01*
X10347857Y-14168524D01*
X10357381Y-14187571D01*
X10357381Y-14206619D01*
X10347857Y-14235190D01*
X10233571Y-14349476D01*
X10357381Y-14349476D01*
X10443095Y-14330428D02*
X10452619Y-14339952D01*
X10443095Y-14349476D01*
X10433571Y-14339952D01*
X10443095Y-14330428D01*
X10443095Y-14349476D01*
X10519286Y-14149476D02*
X10652619Y-14149476D01*
X10566905Y-14349476D01*
X10766905Y-14149476D02*
X10785952Y-14149476D01*
X10805000Y-14159000D01*
X10814524Y-14168524D01*
X10824048Y-14187571D01*
X10833571Y-14225667D01*
X10833571Y-14273286D01*
X10824048Y-14311381D01*
X10814524Y-14330428D01*
X10805000Y-14339952D01*
X10785952Y-14349476D01*
X10766905Y-14349476D01*
X10747857Y-14339952D01*
X10738333Y-14330428D01*
X10728810Y-14311381D01*
X10719286Y-14273286D01*
X10719286Y-14225667D01*
X10728810Y-14187571D01*
X10738333Y-14168524D01*
X10747857Y-14159000D01*
X10766905Y-14149476D01*
X10957381Y-14149476D02*
X10976429Y-14149476D01*
X10995476Y-14159000D01*
X11005000Y-14168524D01*
X11014524Y-14187571D01*
X11024048Y-14225667D01*
X11024048Y-14273286D01*
X11014524Y-14311381D01*
X11005000Y-14330428D01*
X10995476Y-14339952D01*
X10976429Y-14349476D01*
X10957381Y-14349476D01*
X10938333Y-14339952D01*
X10928810Y-14330428D01*
X10919286Y-14311381D01*
X10909762Y-14273286D01*
X10909762Y-14225667D01*
X10919286Y-14187571D01*
X10928810Y-14168524D01*
X10938333Y-14159000D01*
X10957381Y-14149476D01*
X11109762Y-14349476D02*
X11109762Y-14216143D01*
X11109762Y-14235190D02*
X11119286Y-14225667D01*
X11138333Y-14216143D01*
X11166905Y-14216143D01*
X11185952Y-14225667D01*
X11195476Y-14244714D01*
X11195476Y-14349476D01*
X11195476Y-14244714D02*
X11205000Y-14225667D01*
X11224048Y-14216143D01*
X11252619Y-14216143D01*
X11271667Y-14225667D01*
X11281190Y-14244714D01*
X11281190Y-14349476D01*
X11376428Y-14349476D02*
X11376428Y-14216143D01*
X11376428Y-14235190D02*
X11385952Y-14225667D01*
X11405000Y-14216143D01*
X11433571Y-14216143D01*
X11452619Y-14225667D01*
X11462143Y-14244714D01*
X11462143Y-14349476D01*
X11462143Y-14244714D02*
X11471667Y-14225667D01*
X11490714Y-14216143D01*
X11519286Y-14216143D01*
X11538333Y-14225667D01*
X11547857Y-14244714D01*
X11547857Y-14349476D01*
X11938333Y-14139952D02*
X11766905Y-14397095D01*
X12195476Y-14149476D02*
X12214524Y-14149476D01*
X12233571Y-14159000D01*
X12243095Y-14168524D01*
X12252619Y-14187571D01*
X12262143Y-14225667D01*
X12262143Y-14273286D01*
X12252619Y-14311381D01*
X12243095Y-14330428D01*
X12233571Y-14339952D01*
X12214524Y-14349476D01*
X12195476Y-14349476D01*
X12176428Y-14339952D01*
X12166905Y-14330428D01*
X12157381Y-14311381D01*
X12147857Y-14273286D01*
X12147857Y-14225667D01*
X12157381Y-14187571D01*
X12166905Y-14168524D01*
X12176428Y-14159000D01*
X12195476Y-14149476D01*
X12347857Y-14330428D02*
X12357381Y-14339952D01*
X12347857Y-14349476D01*
X12338333Y-14339952D01*
X12347857Y-14330428D01*
X12347857Y-14349476D01*
X12547857Y-14349476D02*
X12433571Y-14349476D01*
X12490714Y-14349476D02*
X12490714Y-14149476D01*
X12471667Y-14178048D01*
X12452619Y-14197095D01*
X12433571Y-14206619D01*
X12671667Y-14149476D02*
X12690714Y-14149476D01*
X12709762Y-14159000D01*
X12719286Y-14168524D01*
X12728809Y-14187571D01*
X12738333Y-14225667D01*
X12738333Y-14273286D01*
X12728809Y-14311381D01*
X12719286Y-14330428D01*
X12709762Y-14339952D01*
X12690714Y-14349476D01*
X12671667Y-14349476D01*
X12652619Y-14339952D01*
X12643095Y-14330428D01*
X12633571Y-14311381D01*
X12624048Y-14273286D01*
X12624048Y-14225667D01*
X12633571Y-14187571D01*
X12643095Y-14168524D01*
X12652619Y-14159000D01*
X12671667Y-14149476D01*
X12909762Y-14149476D02*
X12871667Y-14149476D01*
X12852619Y-14159000D01*
X12843095Y-14168524D01*
X12824048Y-14197095D01*
X12814524Y-14235190D01*
X12814524Y-14311381D01*
X12824048Y-14330428D01*
X12833571Y-14339952D01*
X12852619Y-14349476D01*
X12890714Y-14349476D01*
X12909762Y-14339952D01*
X12919286Y-14330428D01*
X12928809Y-14311381D01*
X12928809Y-14263762D01*
X12919286Y-14244714D01*
X12909762Y-14235190D01*
X12890714Y-14225667D01*
X12852619Y-14225667D01*
X12833571Y-14235190D01*
X12824048Y-14244714D01*
X12814524Y-14263762D01*
X12995476Y-14149476D02*
X13119286Y-14149476D01*
X13052619Y-14225667D01*
X13081190Y-14225667D01*
X13100238Y-14235190D01*
X13109762Y-14244714D01*
X13119286Y-14263762D01*
X13119286Y-14311381D01*
X13109762Y-14330428D01*
X13100238Y-14339952D01*
X13081190Y-14349476D01*
X13024048Y-14349476D01*
X13005000Y-14339952D01*
X12995476Y-14330428D01*
X13195476Y-14149476D02*
X13195476Y-14187571D01*
X13271667Y-14149476D02*
X13271667Y-14187571D01*
X13566905Y-14425667D02*
X13557381Y-14416143D01*
X13538333Y-14387571D01*
X13528809Y-14368524D01*
X13519286Y-14339952D01*
X13509762Y-14292333D01*
X13509762Y-14254238D01*
X13519286Y-14206619D01*
X13528809Y-14178048D01*
X13538333Y-14159000D01*
X13557381Y-14130428D01*
X13566905Y-14120905D01*
X13738333Y-14149476D02*
X13643095Y-14149476D01*
X13633571Y-14244714D01*
X13643095Y-14235190D01*
X13662143Y-14225667D01*
X13709762Y-14225667D01*
X13728809Y-14235190D01*
X13738333Y-14244714D01*
X13747857Y-14263762D01*
X13747857Y-14311381D01*
X13738333Y-14330428D01*
X13728809Y-14339952D01*
X13709762Y-14349476D01*
X13662143Y-14349476D01*
X13643095Y-14339952D01*
X13633571Y-14330428D01*
X13985952Y-14349476D02*
X13985952Y-14149476D01*
X14071667Y-14349476D02*
X14071667Y-14244714D01*
X14062143Y-14225667D01*
X14043095Y-14216143D01*
X14014524Y-14216143D01*
X13995476Y-14225667D01*
X13985952Y-14235190D01*
X14195476Y-14349476D02*
X14176428Y-14339952D01*
X14166905Y-14330428D01*
X14157381Y-14311381D01*
X14157381Y-14254238D01*
X14166905Y-14235190D01*
X14176428Y-14225667D01*
X14195476Y-14216143D01*
X14224048Y-14216143D01*
X14243095Y-14225667D01*
X14252619Y-14235190D01*
X14262143Y-14254238D01*
X14262143Y-14311381D01*
X14252619Y-14330428D01*
X14243095Y-14339952D01*
X14224048Y-14349476D01*
X14195476Y-14349476D01*
X14376428Y-14349476D02*
X14357381Y-14339952D01*
X14347857Y-14320905D01*
X14347857Y-14149476D01*
X14528809Y-14339952D02*
X14509762Y-14349476D01*
X14471667Y-14349476D01*
X14452619Y-14339952D01*
X14443095Y-14320905D01*
X14443095Y-14244714D01*
X14452619Y-14225667D01*
X14471667Y-14216143D01*
X14509762Y-14216143D01*
X14528809Y-14225667D01*
X14538333Y-14244714D01*
X14538333Y-14263762D01*
X14443095Y-14282809D01*
X14614524Y-14339952D02*
X14633571Y-14349476D01*
X14671667Y-14349476D01*
X14690714Y-14339952D01*
X14700238Y-14320905D01*
X14700238Y-14311381D01*
X14690714Y-14292333D01*
X14671667Y-14282809D01*
X14643095Y-14282809D01*
X14624048Y-14273286D01*
X14614524Y-14254238D01*
X14614524Y-14244714D01*
X14624048Y-14225667D01*
X14643095Y-14216143D01*
X14671667Y-14216143D01*
X14690714Y-14225667D01*
X14766905Y-14425667D02*
X14776428Y-14416143D01*
X14795476Y-14387571D01*
X14805000Y-14368524D01*
X14814524Y-14339952D01*
X14824048Y-14292333D01*
X14824048Y-14254238D01*
X14814524Y-14206619D01*
X14805000Y-14178048D01*
X14795476Y-14159000D01*
X14776428Y-14130428D01*
X14766905Y-14120905D01*
X15128809Y-14425667D02*
X15119286Y-14416143D01*
X15100238Y-14387571D01*
X15090714Y-14368524D01*
X15081190Y-14339952D01*
X15071667Y-14292333D01*
X15071667Y-14254238D01*
X15081190Y-14206619D01*
X15090714Y-14178048D01*
X15100238Y-14159000D01*
X15119286Y-14130428D01*
X15128809Y-14120905D01*
X15205000Y-14216143D02*
X15205000Y-14349476D01*
X15205000Y-14235190D02*
X15214524Y-14225667D01*
X15233571Y-14216143D01*
X15262143Y-14216143D01*
X15281190Y-14225667D01*
X15290714Y-14244714D01*
X15290714Y-14349476D01*
X15414524Y-14349476D02*
X15395476Y-14339952D01*
X15385952Y-14330428D01*
X15376428Y-14311381D01*
X15376428Y-14254238D01*
X15385952Y-14235190D01*
X15395476Y-14225667D01*
X15414524Y-14216143D01*
X15443095Y-14216143D01*
X15462143Y-14225667D01*
X15471667Y-14235190D01*
X15481190Y-14254238D01*
X15481190Y-14311381D01*
X15471667Y-14330428D01*
X15462143Y-14339952D01*
X15443095Y-14349476D01*
X15414524Y-14349476D01*
X15538333Y-14216143D02*
X15614524Y-14216143D01*
X15566905Y-14149476D02*
X15566905Y-14320905D01*
X15576428Y-14339952D01*
X15595476Y-14349476D01*
X15614524Y-14349476D01*
X15833571Y-14216143D02*
X15833571Y-14416143D01*
X15833571Y-14225667D02*
X15852619Y-14216143D01*
X15890714Y-14216143D01*
X15909762Y-14225667D01*
X15919286Y-14235190D01*
X15928809Y-14254238D01*
X15928809Y-14311381D01*
X15919286Y-14330428D01*
X15909762Y-14339952D01*
X15890714Y-14349476D01*
X15852619Y-14349476D01*
X15833571Y-14339952D01*
X16043095Y-14349476D02*
X16024048Y-14339952D01*
X16014524Y-14320905D01*
X16014524Y-14149476D01*
X16205000Y-14349476D02*
X16205000Y-14244714D01*
X16195476Y-14225667D01*
X16176428Y-14216143D01*
X16138333Y-14216143D01*
X16119286Y-14225667D01*
X16205000Y-14339952D02*
X16185952Y-14349476D01*
X16138333Y-14349476D01*
X16119286Y-14339952D01*
X16109762Y-14320905D01*
X16109762Y-14301857D01*
X16119286Y-14282809D01*
X16138333Y-14273286D01*
X16185952Y-14273286D01*
X16205000Y-14263762D01*
X16271667Y-14216143D02*
X16347857Y-14216143D01*
X16300238Y-14149476D02*
X16300238Y-14320905D01*
X16309762Y-14339952D01*
X16328809Y-14349476D01*
X16347857Y-14349476D01*
X16490714Y-14339952D02*
X16471667Y-14349476D01*
X16433571Y-14349476D01*
X16414524Y-14339952D01*
X16405000Y-14320905D01*
X16405000Y-14244714D01*
X16414524Y-14225667D01*
X16433571Y-14216143D01*
X16471667Y-14216143D01*
X16490714Y-14225667D01*
X16500238Y-14244714D01*
X16500238Y-14263762D01*
X16405000Y-14282809D01*
X16671667Y-14349476D02*
X16671667Y-14149476D01*
X16671667Y-14339952D02*
X16652619Y-14349476D01*
X16614524Y-14349476D01*
X16595476Y-14339952D01*
X16585952Y-14330428D01*
X16576428Y-14311381D01*
X16576428Y-14254238D01*
X16585952Y-14235190D01*
X16595476Y-14225667D01*
X16614524Y-14216143D01*
X16652619Y-14216143D01*
X16671667Y-14225667D01*
X16747857Y-14425667D02*
X16757381Y-14416143D01*
X16776428Y-14387571D01*
X16785952Y-14368524D01*
X16795476Y-14339952D01*
X16805000Y-14292333D01*
X16805000Y-14254238D01*
X16795476Y-14206619D01*
X16785952Y-14178048D01*
X16776428Y-14159000D01*
X16757381Y-14130428D01*
X16747857Y-14120905D01*
X9895000Y-14479000D02*
X9895000Y-14679000D01*
X9795000Y-14579000D02*
X9995000Y-14579000D01*
X10243095Y-14488524D02*
X10252619Y-14479000D01*
X10271667Y-14469476D01*
X10319286Y-14469476D01*
X10338333Y-14479000D01*
X10347857Y-14488524D01*
X10357381Y-14507571D01*
X10357381Y-14526619D01*
X10347857Y-14555190D01*
X10233571Y-14669476D01*
X10357381Y-14669476D01*
X10443095Y-14650428D02*
X10452619Y-14659952D01*
X10443095Y-14669476D01*
X10433571Y-14659952D01*
X10443095Y-14650428D01*
X10443095Y-14669476D01*
X10519286Y-14469476D02*
X10652619Y-14469476D01*
X10566905Y-14669476D01*
X10824048Y-14469476D02*
X10728810Y-14469476D01*
X10719286Y-14564714D01*
X10728810Y-14555190D01*
X10747857Y-14545667D01*
X10795476Y-14545667D01*
X10814524Y-14555190D01*
X10824048Y-14564714D01*
X10833571Y-14583762D01*
X10833571Y-14631381D01*
X10824048Y-14650428D01*
X10814524Y-14659952D01*
X10795476Y-14669476D01*
X10747857Y-14669476D01*
X10728810Y-14659952D01*
X10719286Y-14650428D01*
X10957381Y-14469476D02*
X10976429Y-14469476D01*
X10995476Y-14479000D01*
X11005000Y-14488524D01*
X11014524Y-14507571D01*
X11024048Y-14545667D01*
X11024048Y-14593286D01*
X11014524Y-14631381D01*
X11005000Y-14650428D01*
X10995476Y-14659952D01*
X10976429Y-14669476D01*
X10957381Y-14669476D01*
X10938333Y-14659952D01*
X10928810Y-14650428D01*
X10919286Y-14631381D01*
X10909762Y-14593286D01*
X10909762Y-14545667D01*
X10919286Y-14507571D01*
X10928810Y-14488524D01*
X10938333Y-14479000D01*
X10957381Y-14469476D01*
X11109762Y-14669476D02*
X11109762Y-14536143D01*
X11109762Y-14555190D02*
X11119286Y-14545667D01*
X11138333Y-14536143D01*
X11166905Y-14536143D01*
X11185952Y-14545667D01*
X11195476Y-14564714D01*
X11195476Y-14669476D01*
X11195476Y-14564714D02*
X11205000Y-14545667D01*
X11224048Y-14536143D01*
X11252619Y-14536143D01*
X11271667Y-14545667D01*
X11281190Y-14564714D01*
X11281190Y-14669476D01*
X11376428Y-14669476D02*
X11376428Y-14536143D01*
X11376428Y-14555190D02*
X11385952Y-14545667D01*
X11405000Y-14536143D01*
X11433571Y-14536143D01*
X11452619Y-14545667D01*
X11462143Y-14564714D01*
X11462143Y-14669476D01*
X11462143Y-14564714D02*
X11471667Y-14545667D01*
X11490714Y-14536143D01*
X11519286Y-14536143D01*
X11538333Y-14545667D01*
X11547857Y-14564714D01*
X11547857Y-14669476D01*
X11938333Y-14459952D02*
X11766905Y-14717095D01*
X12195476Y-14469476D02*
X12214524Y-14469476D01*
X12233571Y-14479000D01*
X12243095Y-14488524D01*
X12252619Y-14507571D01*
X12262143Y-14545667D01*
X12262143Y-14593286D01*
X12252619Y-14631381D01*
X12243095Y-14650428D01*
X12233571Y-14659952D01*
X12214524Y-14669476D01*
X12195476Y-14669476D01*
X12176428Y-14659952D01*
X12166905Y-14650428D01*
X12157381Y-14631381D01*
X12147857Y-14593286D01*
X12147857Y-14545667D01*
X12157381Y-14507571D01*
X12166905Y-14488524D01*
X12176428Y-14479000D01*
X12195476Y-14469476D01*
X12347857Y-14650428D02*
X12357381Y-14659952D01*
X12347857Y-14669476D01*
X12338333Y-14659952D01*
X12347857Y-14650428D01*
X12347857Y-14669476D01*
X12547857Y-14669476D02*
X12433571Y-14669476D01*
X12490714Y-14669476D02*
X12490714Y-14469476D01*
X12471667Y-14498048D01*
X12452619Y-14517095D01*
X12433571Y-14526619D01*
X12671667Y-14469476D02*
X12690714Y-14469476D01*
X12709762Y-14479000D01*
X12719286Y-14488524D01*
X12728809Y-14507571D01*
X12738333Y-14545667D01*
X12738333Y-14593286D01*
X12728809Y-14631381D01*
X12719286Y-14650428D01*
X12709762Y-14659952D01*
X12690714Y-14669476D01*
X12671667Y-14669476D01*
X12652619Y-14659952D01*
X12643095Y-14650428D01*
X12633571Y-14631381D01*
X12624048Y-14593286D01*
X12624048Y-14545667D01*
X12633571Y-14507571D01*
X12643095Y-14488524D01*
X12652619Y-14479000D01*
X12671667Y-14469476D01*
X12852619Y-14555190D02*
X12833571Y-14545667D01*
X12824048Y-14536143D01*
X12814524Y-14517095D01*
X12814524Y-14507571D01*
X12824048Y-14488524D01*
X12833571Y-14479000D01*
X12852619Y-14469476D01*
X12890714Y-14469476D01*
X12909762Y-14479000D01*
X12919286Y-14488524D01*
X12928809Y-14507571D01*
X12928809Y-14517095D01*
X12919286Y-14536143D01*
X12909762Y-14545667D01*
X12890714Y-14555190D01*
X12852619Y-14555190D01*
X12833571Y-14564714D01*
X12824048Y-14574238D01*
X12814524Y-14593286D01*
X12814524Y-14631381D01*
X12824048Y-14650428D01*
X12833571Y-14659952D01*
X12852619Y-14669476D01*
X12890714Y-14669476D01*
X12909762Y-14659952D01*
X12919286Y-14650428D01*
X12928809Y-14631381D01*
X12928809Y-14593286D01*
X12919286Y-14574238D01*
X12909762Y-14564714D01*
X12890714Y-14555190D01*
X12995476Y-14469476D02*
X13119286Y-14469476D01*
X13052619Y-14545667D01*
X13081190Y-14545667D01*
X13100238Y-14555190D01*
X13109762Y-14564714D01*
X13119286Y-14583762D01*
X13119286Y-14631381D01*
X13109762Y-14650428D01*
X13100238Y-14659952D01*
X13081190Y-14669476D01*
X13024048Y-14669476D01*
X13005000Y-14659952D01*
X12995476Y-14650428D01*
X13195476Y-14469476D02*
X13195476Y-14507571D01*
X13271667Y-14469476D02*
X13271667Y-14507571D01*
X13566905Y-14745667D02*
X13557381Y-14736143D01*
X13538333Y-14707571D01*
X13528809Y-14688524D01*
X13519286Y-14659952D01*
X13509762Y-14612333D01*
X13509762Y-14574238D01*
X13519286Y-14526619D01*
X13528809Y-14498048D01*
X13538333Y-14479000D01*
X13557381Y-14450428D01*
X13566905Y-14440905D01*
X13728809Y-14536143D02*
X13728809Y-14669476D01*
X13681190Y-14459952D02*
X13633571Y-14602809D01*
X13757381Y-14602809D01*
X13985952Y-14669476D02*
X13985952Y-14469476D01*
X14071667Y-14669476D02*
X14071667Y-14564714D01*
X14062143Y-14545667D01*
X14043095Y-14536143D01*
X14014524Y-14536143D01*
X13995476Y-14545667D01*
X13985952Y-14555190D01*
X14195476Y-14669476D02*
X14176428Y-14659952D01*
X14166905Y-14650428D01*
X14157381Y-14631381D01*
X14157381Y-14574238D01*
X14166905Y-14555190D01*
X14176428Y-14545667D01*
X14195476Y-14536143D01*
X14224048Y-14536143D01*
X14243095Y-14545667D01*
X14252619Y-14555190D01*
X14262143Y-14574238D01*
X14262143Y-14631381D01*
X14252619Y-14650428D01*
X14243095Y-14659952D01*
X14224048Y-14669476D01*
X14195476Y-14669476D01*
X14376428Y-14669476D02*
X14357381Y-14659952D01*
X14347857Y-14640905D01*
X14347857Y-14469476D01*
X14528809Y-14659952D02*
X14509762Y-14669476D01*
X14471667Y-14669476D01*
X14452619Y-14659952D01*
X14443095Y-14640905D01*
X14443095Y-14564714D01*
X14452619Y-14545667D01*
X14471667Y-14536143D01*
X14509762Y-14536143D01*
X14528809Y-14545667D01*
X14538333Y-14564714D01*
X14538333Y-14583762D01*
X14443095Y-14602809D01*
X14614524Y-14659952D02*
X14633571Y-14669476D01*
X14671667Y-14669476D01*
X14690714Y-14659952D01*
X14700238Y-14640905D01*
X14700238Y-14631381D01*
X14690714Y-14612333D01*
X14671667Y-14602809D01*
X14643095Y-14602809D01*
X14624048Y-14593286D01*
X14614524Y-14574238D01*
X14614524Y-14564714D01*
X14624048Y-14545667D01*
X14643095Y-14536143D01*
X14671667Y-14536143D01*
X14690714Y-14545667D01*
X14766905Y-14745667D02*
X14776428Y-14736143D01*
X14795476Y-14707571D01*
X14805000Y-14688524D01*
X14814524Y-14659952D01*
X14824048Y-14612333D01*
X14824048Y-14574238D01*
X14814524Y-14526619D01*
X14805000Y-14498048D01*
X14795476Y-14479000D01*
X14776428Y-14450428D01*
X14766905Y-14440905D01*
X15128809Y-14745667D02*
X15119286Y-14736143D01*
X15100238Y-14707571D01*
X15090714Y-14688524D01*
X15081190Y-14659952D01*
X15071667Y-14612333D01*
X15071667Y-14574238D01*
X15081190Y-14526619D01*
X15090714Y-14498048D01*
X15100238Y-14479000D01*
X15119286Y-14450428D01*
X15128809Y-14440905D01*
X15205000Y-14536143D02*
X15205000Y-14669476D01*
X15205000Y-14555190D02*
X15214524Y-14545667D01*
X15233571Y-14536143D01*
X15262143Y-14536143D01*
X15281190Y-14545667D01*
X15290714Y-14564714D01*
X15290714Y-14669476D01*
X15414524Y-14669476D02*
X15395476Y-14659952D01*
X15385952Y-14650428D01*
X15376428Y-14631381D01*
X15376428Y-14574238D01*
X15385952Y-14555190D01*
X15395476Y-14545667D01*
X15414524Y-14536143D01*
X15443095Y-14536143D01*
X15462143Y-14545667D01*
X15471667Y-14555190D01*
X15481190Y-14574238D01*
X15481190Y-14631381D01*
X15471667Y-14650428D01*
X15462143Y-14659952D01*
X15443095Y-14669476D01*
X15414524Y-14669476D01*
X15538333Y-14536143D02*
X15614524Y-14536143D01*
X15566905Y-14469476D02*
X15566905Y-14640905D01*
X15576428Y-14659952D01*
X15595476Y-14669476D01*
X15614524Y-14669476D01*
X15833571Y-14536143D02*
X15833571Y-14736143D01*
X15833571Y-14545667D02*
X15852619Y-14536143D01*
X15890714Y-14536143D01*
X15909762Y-14545667D01*
X15919286Y-14555190D01*
X15928809Y-14574238D01*
X15928809Y-14631381D01*
X15919286Y-14650428D01*
X15909762Y-14659952D01*
X15890714Y-14669476D01*
X15852619Y-14669476D01*
X15833571Y-14659952D01*
X16043095Y-14669476D02*
X16024048Y-14659952D01*
X16014524Y-14640905D01*
X16014524Y-14469476D01*
X16205000Y-14669476D02*
X16205000Y-14564714D01*
X16195476Y-14545667D01*
X16176428Y-14536143D01*
X16138333Y-14536143D01*
X16119286Y-14545667D01*
X16205000Y-14659952D02*
X16185952Y-14669476D01*
X16138333Y-14669476D01*
X16119286Y-14659952D01*
X16109762Y-14640905D01*
X16109762Y-14621857D01*
X16119286Y-14602809D01*
X16138333Y-14593286D01*
X16185952Y-14593286D01*
X16205000Y-14583762D01*
X16271667Y-14536143D02*
X16347857Y-14536143D01*
X16300238Y-14469476D02*
X16300238Y-14640905D01*
X16309762Y-14659952D01*
X16328809Y-14669476D01*
X16347857Y-14669476D01*
X16490714Y-14659952D02*
X16471667Y-14669476D01*
X16433571Y-14669476D01*
X16414524Y-14659952D01*
X16405000Y-14640905D01*
X16405000Y-14564714D01*
X16414524Y-14545667D01*
X16433571Y-14536143D01*
X16471667Y-14536143D01*
X16490714Y-14545667D01*
X16500238Y-14564714D01*
X16500238Y-14583762D01*
X16405000Y-14602809D01*
X16671667Y-14669476D02*
X16671667Y-14469476D01*
X16671667Y-14659952D02*
X16652619Y-14669476D01*
X16614524Y-14669476D01*
X16595476Y-14659952D01*
X16585952Y-14650428D01*
X16576428Y-14631381D01*
X16576428Y-14574238D01*
X16585952Y-14555190D01*
X16595476Y-14545667D01*
X16614524Y-14536143D01*
X16652619Y-14536143D01*
X16671667Y-14545667D01*
X16747857Y-14745667D02*
X16757381Y-14736143D01*
X16776428Y-14707571D01*
X16785952Y-14688524D01*
X16795476Y-14659952D01*
X16805000Y-14612333D01*
X16805000Y-14574238D01*
X16795476Y-14526619D01*
X16785952Y-14498048D01*
X16776428Y-14479000D01*
X16757381Y-14450428D01*
X16747857Y-14440905D01*
M02*
