M48
; DRILL file {KiCad (6.0.4-0)} date 2022 April 04, Monday 15:41:05
; FORMAT={-:-/ absolute / metric / decimal}
; #@! TF.CreationDate,2022-04-04T15:41:05+02:00
; #@! TF.GenerationSoftware,Kicad,Pcbnew,(6.0.4-0)
; #@! TF.FileFunction,Plated,1,2,PTH
FMAT,2
METRIC
; #@! TA.AperFunction,Plated,PTH,ViaDrill
T1C0.400
; #@! TA.AperFunction,Plated,PTH,ComponentDrill
T2C0.650
; #@! TA.AperFunction,Plated,PTH,ComponentDrill
T3C0.800
; #@! TA.AperFunction,Plated,PTH,ComponentDrill
T4C0.950
; #@! TA.AperFunction,Plated,PTH,ComponentDrill
T5C1.000
; #@! TA.AperFunction,Plated,PTH,ComponentDrill
T6C1.300
; #@! TA.AperFunction,Plated,PTH,ComponentDrill
T7C1.400
%
G90
G05
T1
X130.175Y-85.725
X132.08Y-78.251
X137.922Y-82.55
X137.922Y-83.566
X140.716Y-78.486
X142.748Y-79.248
X144.78Y-81.915
X146.05Y-63.5
X147.32Y-71.12
X148.59Y-63.5
X149.86Y-71.12
X151.13Y-63.5
X152.4Y-71.12
X153.035Y-81.915
X153.67Y-63.5
X154.94Y-71.12
X154.99Y-81.915
X155.491Y-85.006
X156.21Y-63.5
X157.48Y-71.12
X158.75Y-63.5
X160.02Y-71.12
X162.56Y-71.12
X163.195Y-81.915
X165.1Y-71.12
X166.37Y-71.12
X170.688Y-79.756
X176.022Y-79.756
X177.8Y-73.66
T2
X103.815Y-91.885
X103.815Y-99.885
X110.815Y-91.885
X110.815Y-99.885
T3
X104.2Y-108.02
X111.7Y-110.42
T4
X111.76Y-74.295
X111.76Y-76.795
X111.76Y-79.295
X111.76Y-81.795
X160.942Y-117.5
X165.942Y-97.5
X175.942Y-97.5
X180.942Y-117.5
T5
X118.19Y-118.745
X119.38Y-100.965
X119.38Y-105.965
X125.87Y-87.63
X125.87Y-90.17
X128.19Y-118.745
X128.41Y-87.63
X128.41Y-90.17
X130.95Y-87.63
X130.95Y-90.17
X133.49Y-87.63
X133.49Y-90.17
X136.03Y-87.63
X136.03Y-90.17
X138.57Y-87.63
X138.57Y-90.17
X141.11Y-87.63
X141.11Y-90.17
X143.65Y-87.63
X143.65Y-90.17
X146.19Y-87.63
X146.19Y-90.17
X148.73Y-87.63
X148.73Y-90.17
X148.78Y-95.765
X148.78Y-111.165
X151.27Y-87.63
X151.27Y-90.17
X153.81Y-87.63
X153.81Y-90.17
X156.35Y-87.63
X156.35Y-90.17
X158.89Y-87.63
X158.89Y-90.17
X161.43Y-87.63
X161.43Y-90.17
X163.97Y-87.63
X163.97Y-90.17
X166.51Y-87.63
X166.51Y-90.17
X169.05Y-87.63
X169.05Y-90.17
X171.59Y-87.63
X171.59Y-90.17
X174.13Y-87.63
X174.13Y-90.17
T6
X107.04Y-128.27
X108.86Y-53.9
X113.86Y-53.9
X118.86Y-53.9
X123.86Y-53.9
X128.86Y-53.9
X129.54Y-128.27
X133.86Y-53.9
X138.86Y-53.9
X143.86Y-53.9
X148.86Y-53.9
X153.86Y-53.9
X158.86Y-53.9
X163.86Y-53.9
T7
X138.86Y-127.6
X146.36Y-127.6
X153.86Y-127.6
T0
M30
